G04 #@! TF.GenerationSoftware,KiCad,Pcbnew,9.0.3*
G04 #@! TF.CreationDate,2025-08-14T23:55:57-06:00*
G04 #@! TF.ProjectId,ProtoboardSourcePCB,50726f74-6f62-46f6-9172-64536f757263,rev?*
G04 #@! TF.SameCoordinates,Original*
G04 #@! TF.FileFunction,Legend,Bot*
G04 #@! TF.FilePolarity,Positive*
%FSLAX46Y46*%
G04 Gerber Fmt 4.6, Leading zero omitted, Abs format (unit mm)*
G04 Created by KiCad (PCBNEW 9.0.3) date 2025-08-14 23:55:57*
%MOMM*%
%LPD*%
G01*
G04 APERTURE LIST*
%ADD10C,0.150000*%
%ADD11C,3.200000*%
%ADD12C,12.000000*%
%ADD13R,1.700000X1.700000*%
%ADD14C,1.700000*%
G04 #@! TA.AperFunction,Profile*
%ADD15C,0.050000*%
G04 #@! TD*
G04 APERTURE END LIST*
D10*
X136330180Y-85813220D02*
X137330180Y-85813220D01*
X137330180Y-85813220D02*
X137330180Y-85575125D01*
X137330180Y-85575125D02*
X137282561Y-85432268D01*
X137282561Y-85432268D02*
X137187323Y-85337030D01*
X137187323Y-85337030D02*
X137092085Y-85289411D01*
X137092085Y-85289411D02*
X136901609Y-85241792D01*
X136901609Y-85241792D02*
X136758752Y-85241792D01*
X136758752Y-85241792D02*
X136568276Y-85289411D01*
X136568276Y-85289411D02*
X136473038Y-85337030D01*
X136473038Y-85337030D02*
X136377800Y-85432268D01*
X136377800Y-85432268D02*
X136330180Y-85575125D01*
X136330180Y-85575125D02*
X136330180Y-85813220D01*
X136377800Y-84432268D02*
X136330180Y-84527506D01*
X136330180Y-84527506D02*
X136330180Y-84717982D01*
X136330180Y-84717982D02*
X136377800Y-84813220D01*
X136377800Y-84813220D02*
X136473038Y-84860839D01*
X136473038Y-84860839D02*
X136853990Y-84860839D01*
X136853990Y-84860839D02*
X136949228Y-84813220D01*
X136949228Y-84813220D02*
X136996847Y-84717982D01*
X136996847Y-84717982D02*
X136996847Y-84527506D01*
X136996847Y-84527506D02*
X136949228Y-84432268D01*
X136949228Y-84432268D02*
X136853990Y-84384649D01*
X136853990Y-84384649D02*
X136758752Y-84384649D01*
X136758752Y-84384649D02*
X136663514Y-84860839D01*
X136377800Y-84003696D02*
X136330180Y-83908458D01*
X136330180Y-83908458D02*
X136330180Y-83717982D01*
X136330180Y-83717982D02*
X136377800Y-83622744D01*
X136377800Y-83622744D02*
X136473038Y-83575125D01*
X136473038Y-83575125D02*
X136520657Y-83575125D01*
X136520657Y-83575125D02*
X136615895Y-83622744D01*
X136615895Y-83622744D02*
X136663514Y-83717982D01*
X136663514Y-83717982D02*
X136663514Y-83860839D01*
X136663514Y-83860839D02*
X136711133Y-83956077D01*
X136711133Y-83956077D02*
X136806371Y-84003696D01*
X136806371Y-84003696D02*
X136853990Y-84003696D01*
X136853990Y-84003696D02*
X136949228Y-83956077D01*
X136949228Y-83956077D02*
X136996847Y-83860839D01*
X136996847Y-83860839D02*
X136996847Y-83717982D01*
X136996847Y-83717982D02*
X136949228Y-83622744D01*
X136330180Y-83146553D02*
X136996847Y-83146553D01*
X137330180Y-83146553D02*
X137282561Y-83194172D01*
X137282561Y-83194172D02*
X137234942Y-83146553D01*
X137234942Y-83146553D02*
X137282561Y-83098934D01*
X137282561Y-83098934D02*
X137330180Y-83146553D01*
X137330180Y-83146553D02*
X137234942Y-83146553D01*
X136996847Y-82241792D02*
X136187323Y-82241792D01*
X136187323Y-82241792D02*
X136092085Y-82289411D01*
X136092085Y-82289411D02*
X136044466Y-82337030D01*
X136044466Y-82337030D02*
X135996847Y-82432268D01*
X135996847Y-82432268D02*
X135996847Y-82575125D01*
X135996847Y-82575125D02*
X136044466Y-82670363D01*
X136377800Y-82241792D02*
X136330180Y-82337030D01*
X136330180Y-82337030D02*
X136330180Y-82527506D01*
X136330180Y-82527506D02*
X136377800Y-82622744D01*
X136377800Y-82622744D02*
X136425419Y-82670363D01*
X136425419Y-82670363D02*
X136520657Y-82717982D01*
X136520657Y-82717982D02*
X136806371Y-82717982D01*
X136806371Y-82717982D02*
X136901609Y-82670363D01*
X136901609Y-82670363D02*
X136949228Y-82622744D01*
X136949228Y-82622744D02*
X136996847Y-82527506D01*
X136996847Y-82527506D02*
X136996847Y-82337030D01*
X136996847Y-82337030D02*
X136949228Y-82241792D01*
X136996847Y-81765601D02*
X136330180Y-81765601D01*
X136901609Y-81765601D02*
X136949228Y-81717982D01*
X136949228Y-81717982D02*
X136996847Y-81622744D01*
X136996847Y-81622744D02*
X136996847Y-81479887D01*
X136996847Y-81479887D02*
X136949228Y-81384649D01*
X136949228Y-81384649D02*
X136853990Y-81337030D01*
X136853990Y-81337030D02*
X136330180Y-81337030D01*
X136377800Y-80479887D02*
X136330180Y-80575125D01*
X136330180Y-80575125D02*
X136330180Y-80765601D01*
X136330180Y-80765601D02*
X136377800Y-80860839D01*
X136377800Y-80860839D02*
X136473038Y-80908458D01*
X136473038Y-80908458D02*
X136853990Y-80908458D01*
X136853990Y-80908458D02*
X136949228Y-80860839D01*
X136949228Y-80860839D02*
X136996847Y-80765601D01*
X136996847Y-80765601D02*
X136996847Y-80575125D01*
X136996847Y-80575125D02*
X136949228Y-80479887D01*
X136949228Y-80479887D02*
X136853990Y-80432268D01*
X136853990Y-80432268D02*
X136758752Y-80432268D01*
X136758752Y-80432268D02*
X136663514Y-80908458D01*
X136330180Y-79575125D02*
X137330180Y-79575125D01*
X136377800Y-79575125D02*
X136330180Y-79670363D01*
X136330180Y-79670363D02*
X136330180Y-79860839D01*
X136330180Y-79860839D02*
X136377800Y-79956077D01*
X136377800Y-79956077D02*
X136425419Y-80003696D01*
X136425419Y-80003696D02*
X136520657Y-80051315D01*
X136520657Y-80051315D02*
X136806371Y-80051315D01*
X136806371Y-80051315D02*
X136901609Y-80003696D01*
X136901609Y-80003696D02*
X136949228Y-79956077D01*
X136949228Y-79956077D02*
X136996847Y-79860839D01*
X136996847Y-79860839D02*
X136996847Y-79670363D01*
X136996847Y-79670363D02*
X136949228Y-79575125D01*
X136330180Y-78337029D02*
X137330180Y-78337029D01*
X136949228Y-78337029D02*
X136996847Y-78241791D01*
X136996847Y-78241791D02*
X136996847Y-78051315D01*
X136996847Y-78051315D02*
X136949228Y-77956077D01*
X136949228Y-77956077D02*
X136901609Y-77908458D01*
X136901609Y-77908458D02*
X136806371Y-77860839D01*
X136806371Y-77860839D02*
X136520657Y-77860839D01*
X136520657Y-77860839D02*
X136425419Y-77908458D01*
X136425419Y-77908458D02*
X136377800Y-77956077D01*
X136377800Y-77956077D02*
X136330180Y-78051315D01*
X136330180Y-78051315D02*
X136330180Y-78241791D01*
X136330180Y-78241791D02*
X136377800Y-78337029D01*
X136996847Y-77527505D02*
X136330180Y-77289410D01*
X136996847Y-77051315D02*
X136330180Y-77289410D01*
X136330180Y-77289410D02*
X136092085Y-77384648D01*
X136092085Y-77384648D02*
X136044466Y-77432267D01*
X136044466Y-77432267D02*
X135996847Y-77527505D01*
X136425419Y-76670362D02*
X136377800Y-76622743D01*
X136377800Y-76622743D02*
X136330180Y-76670362D01*
X136330180Y-76670362D02*
X136377800Y-76717981D01*
X136377800Y-76717981D02*
X136425419Y-76670362D01*
X136425419Y-76670362D02*
X136330180Y-76670362D01*
X136949228Y-76670362D02*
X136901609Y-76622743D01*
X136901609Y-76622743D02*
X136853990Y-76670362D01*
X136853990Y-76670362D02*
X136901609Y-76717981D01*
X136901609Y-76717981D02*
X136949228Y-76670362D01*
X136949228Y-76670362D02*
X136853990Y-76670362D01*
X136330180Y-74860839D02*
X136806371Y-75194172D01*
X136330180Y-75432267D02*
X137330180Y-75432267D01*
X137330180Y-75432267D02*
X137330180Y-75051315D01*
X137330180Y-75051315D02*
X137282561Y-74956077D01*
X137282561Y-74956077D02*
X137234942Y-74908458D01*
X137234942Y-74908458D02*
X137139704Y-74860839D01*
X137139704Y-74860839D02*
X136996847Y-74860839D01*
X136996847Y-74860839D02*
X136901609Y-74908458D01*
X136901609Y-74908458D02*
X136853990Y-74956077D01*
X136853990Y-74956077D02*
X136806371Y-75051315D01*
X136806371Y-75051315D02*
X136806371Y-75432267D01*
X136330180Y-74289410D02*
X136377800Y-74384648D01*
X136377800Y-74384648D02*
X136425419Y-74432267D01*
X136425419Y-74432267D02*
X136520657Y-74479886D01*
X136520657Y-74479886D02*
X136806371Y-74479886D01*
X136806371Y-74479886D02*
X136901609Y-74432267D01*
X136901609Y-74432267D02*
X136949228Y-74384648D01*
X136949228Y-74384648D02*
X136996847Y-74289410D01*
X136996847Y-74289410D02*
X136996847Y-74146553D01*
X136996847Y-74146553D02*
X136949228Y-74051315D01*
X136949228Y-74051315D02*
X136901609Y-74003696D01*
X136901609Y-74003696D02*
X136806371Y-73956077D01*
X136806371Y-73956077D02*
X136520657Y-73956077D01*
X136520657Y-73956077D02*
X136425419Y-74003696D01*
X136425419Y-74003696D02*
X136377800Y-74051315D01*
X136377800Y-74051315D02*
X136330180Y-74146553D01*
X136330180Y-74146553D02*
X136330180Y-74289410D01*
X136330180Y-73098934D02*
X137330180Y-73098934D01*
X136377800Y-73098934D02*
X136330180Y-73194172D01*
X136330180Y-73194172D02*
X136330180Y-73384648D01*
X136330180Y-73384648D02*
X136377800Y-73479886D01*
X136377800Y-73479886D02*
X136425419Y-73527505D01*
X136425419Y-73527505D02*
X136520657Y-73575124D01*
X136520657Y-73575124D02*
X136806371Y-73575124D01*
X136806371Y-73575124D02*
X136901609Y-73527505D01*
X136901609Y-73527505D02*
X136949228Y-73479886D01*
X136949228Y-73479886D02*
X136996847Y-73384648D01*
X136996847Y-73384648D02*
X136996847Y-73194172D01*
X136996847Y-73194172D02*
X136949228Y-73098934D01*
X136330180Y-72622743D02*
X136996847Y-72622743D01*
X136806371Y-72622743D02*
X136901609Y-72575124D01*
X136901609Y-72575124D02*
X136949228Y-72527505D01*
X136949228Y-72527505D02*
X136996847Y-72432267D01*
X136996847Y-72432267D02*
X136996847Y-72337029D01*
X136330180Y-72003695D02*
X136996847Y-72003695D01*
X137330180Y-72003695D02*
X137282561Y-72051314D01*
X137282561Y-72051314D02*
X137234942Y-72003695D01*
X137234942Y-72003695D02*
X137282561Y-71956076D01*
X137282561Y-71956076D02*
X137330180Y-72003695D01*
X137330180Y-72003695D02*
X137234942Y-72003695D01*
X136996847Y-71098934D02*
X136187323Y-71098934D01*
X136187323Y-71098934D02*
X136092085Y-71146553D01*
X136092085Y-71146553D02*
X136044466Y-71194172D01*
X136044466Y-71194172D02*
X135996847Y-71289410D01*
X135996847Y-71289410D02*
X135996847Y-71432267D01*
X135996847Y-71432267D02*
X136044466Y-71527505D01*
X136377800Y-71098934D02*
X136330180Y-71194172D01*
X136330180Y-71194172D02*
X136330180Y-71384648D01*
X136330180Y-71384648D02*
X136377800Y-71479886D01*
X136377800Y-71479886D02*
X136425419Y-71527505D01*
X136425419Y-71527505D02*
X136520657Y-71575124D01*
X136520657Y-71575124D02*
X136806371Y-71575124D01*
X136806371Y-71575124D02*
X136901609Y-71527505D01*
X136901609Y-71527505D02*
X136949228Y-71479886D01*
X136949228Y-71479886D02*
X136996847Y-71384648D01*
X136996847Y-71384648D02*
X136996847Y-71194172D01*
X136996847Y-71194172D02*
X136949228Y-71098934D01*
X136330180Y-70479886D02*
X136377800Y-70575124D01*
X136377800Y-70575124D02*
X136425419Y-70622743D01*
X136425419Y-70622743D02*
X136520657Y-70670362D01*
X136520657Y-70670362D02*
X136806371Y-70670362D01*
X136806371Y-70670362D02*
X136901609Y-70622743D01*
X136901609Y-70622743D02*
X136949228Y-70575124D01*
X136949228Y-70575124D02*
X136996847Y-70479886D01*
X136996847Y-70479886D02*
X136996847Y-70337029D01*
X136996847Y-70337029D02*
X136949228Y-70241791D01*
X136949228Y-70241791D02*
X136901609Y-70194172D01*
X136901609Y-70194172D02*
X136806371Y-70146553D01*
X136806371Y-70146553D02*
X136520657Y-70146553D01*
X136520657Y-70146553D02*
X136425419Y-70194172D01*
X136425419Y-70194172D02*
X136377800Y-70241791D01*
X136377800Y-70241791D02*
X136330180Y-70337029D01*
X136330180Y-70337029D02*
X136330180Y-70479886D01*
X136330180Y-68956076D02*
X137330180Y-68956076D01*
X137330180Y-68956076D02*
X136615895Y-68622743D01*
X136615895Y-68622743D02*
X137330180Y-68289410D01*
X137330180Y-68289410D02*
X136330180Y-68289410D01*
X136330180Y-67384648D02*
X136853990Y-67384648D01*
X136853990Y-67384648D02*
X136949228Y-67432267D01*
X136949228Y-67432267D02*
X136996847Y-67527505D01*
X136996847Y-67527505D02*
X136996847Y-67717981D01*
X136996847Y-67717981D02*
X136949228Y-67813219D01*
X136377800Y-67384648D02*
X136330180Y-67479886D01*
X136330180Y-67479886D02*
X136330180Y-67717981D01*
X136330180Y-67717981D02*
X136377800Y-67813219D01*
X136377800Y-67813219D02*
X136473038Y-67860838D01*
X136473038Y-67860838D02*
X136568276Y-67860838D01*
X136568276Y-67860838D02*
X136663514Y-67813219D01*
X136663514Y-67813219D02*
X136711133Y-67717981D01*
X136711133Y-67717981D02*
X136711133Y-67479886D01*
X136711133Y-67479886D02*
X136758752Y-67384648D01*
X136330180Y-66479886D02*
X137330180Y-66479886D01*
X136377800Y-66479886D02*
X136330180Y-66575124D01*
X136330180Y-66575124D02*
X136330180Y-66765600D01*
X136330180Y-66765600D02*
X136377800Y-66860838D01*
X136377800Y-66860838D02*
X136425419Y-66908457D01*
X136425419Y-66908457D02*
X136520657Y-66956076D01*
X136520657Y-66956076D02*
X136806371Y-66956076D01*
X136806371Y-66956076D02*
X136901609Y-66908457D01*
X136901609Y-66908457D02*
X136949228Y-66860838D01*
X136949228Y-66860838D02*
X136996847Y-66765600D01*
X136996847Y-66765600D02*
X136996847Y-66575124D01*
X136996847Y-66575124D02*
X136949228Y-66479886D01*
X136330180Y-66003695D02*
X136996847Y-66003695D01*
X136806371Y-66003695D02*
X136901609Y-65956076D01*
X136901609Y-65956076D02*
X136949228Y-65908457D01*
X136949228Y-65908457D02*
X136996847Y-65813219D01*
X136996847Y-65813219D02*
X136996847Y-65717981D01*
X136330180Y-65384647D02*
X136996847Y-65384647D01*
X137330180Y-65384647D02*
X137282561Y-65432266D01*
X137282561Y-65432266D02*
X137234942Y-65384647D01*
X137234942Y-65384647D02*
X137282561Y-65337028D01*
X137282561Y-65337028D02*
X137330180Y-65384647D01*
X137330180Y-65384647D02*
X137234942Y-65384647D01*
X136996847Y-64479886D02*
X136187323Y-64479886D01*
X136187323Y-64479886D02*
X136092085Y-64527505D01*
X136092085Y-64527505D02*
X136044466Y-64575124D01*
X136044466Y-64575124D02*
X135996847Y-64670362D01*
X135996847Y-64670362D02*
X135996847Y-64813219D01*
X135996847Y-64813219D02*
X136044466Y-64908457D01*
X136377800Y-64479886D02*
X136330180Y-64575124D01*
X136330180Y-64575124D02*
X136330180Y-64765600D01*
X136330180Y-64765600D02*
X136377800Y-64860838D01*
X136377800Y-64860838D02*
X136425419Y-64908457D01*
X136425419Y-64908457D02*
X136520657Y-64956076D01*
X136520657Y-64956076D02*
X136806371Y-64956076D01*
X136806371Y-64956076D02*
X136901609Y-64908457D01*
X136901609Y-64908457D02*
X136949228Y-64860838D01*
X136949228Y-64860838D02*
X136996847Y-64765600D01*
X136996847Y-64765600D02*
X136996847Y-64575124D01*
X136996847Y-64575124D02*
X136949228Y-64479886D01*
X136330180Y-63575124D02*
X136853990Y-63575124D01*
X136853990Y-63575124D02*
X136949228Y-63622743D01*
X136949228Y-63622743D02*
X136996847Y-63717981D01*
X136996847Y-63717981D02*
X136996847Y-63908457D01*
X136996847Y-63908457D02*
X136949228Y-64003695D01*
X136377800Y-63575124D02*
X136330180Y-63670362D01*
X136330180Y-63670362D02*
X136330180Y-63908457D01*
X136330180Y-63908457D02*
X136377800Y-64003695D01*
X136377800Y-64003695D02*
X136473038Y-64051314D01*
X136473038Y-64051314D02*
X136568276Y-64051314D01*
X136568276Y-64051314D02*
X136663514Y-64003695D01*
X136663514Y-64003695D02*
X136711133Y-63908457D01*
X136711133Y-63908457D02*
X136711133Y-63670362D01*
X136711133Y-63670362D02*
X136758752Y-63575124D01*
X136330180Y-62956076D02*
X136377800Y-63051314D01*
X136377800Y-63051314D02*
X136473038Y-63098933D01*
X136473038Y-63098933D02*
X137330180Y-63098933D01*
X136330180Y-61813218D02*
X137330180Y-61813218D01*
X137330180Y-61813218D02*
X136615895Y-61479885D01*
X136615895Y-61479885D02*
X137330180Y-61146552D01*
X137330180Y-61146552D02*
X136330180Y-61146552D01*
X136330180Y-60527504D02*
X136377800Y-60622742D01*
X136377800Y-60622742D02*
X136425419Y-60670361D01*
X136425419Y-60670361D02*
X136520657Y-60717980D01*
X136520657Y-60717980D02*
X136806371Y-60717980D01*
X136806371Y-60717980D02*
X136901609Y-60670361D01*
X136901609Y-60670361D02*
X136949228Y-60622742D01*
X136949228Y-60622742D02*
X136996847Y-60527504D01*
X136996847Y-60527504D02*
X136996847Y-60384647D01*
X136996847Y-60384647D02*
X136949228Y-60289409D01*
X136949228Y-60289409D02*
X136901609Y-60241790D01*
X136901609Y-60241790D02*
X136806371Y-60194171D01*
X136806371Y-60194171D02*
X136520657Y-60194171D01*
X136520657Y-60194171D02*
X136425419Y-60241790D01*
X136425419Y-60241790D02*
X136377800Y-60289409D01*
X136377800Y-60289409D02*
X136330180Y-60384647D01*
X136330180Y-60384647D02*
X136330180Y-60527504D01*
X136996847Y-59765599D02*
X136330180Y-59765599D01*
X136901609Y-59765599D02*
X136949228Y-59717980D01*
X136949228Y-59717980D02*
X136996847Y-59622742D01*
X136996847Y-59622742D02*
X136996847Y-59479885D01*
X136996847Y-59479885D02*
X136949228Y-59384647D01*
X136949228Y-59384647D02*
X136853990Y-59337028D01*
X136853990Y-59337028D02*
X136330180Y-59337028D01*
X136996847Y-59003694D02*
X136996847Y-58622742D01*
X137330180Y-58860837D02*
X136473038Y-58860837D01*
X136473038Y-58860837D02*
X136377800Y-58813218D01*
X136377800Y-58813218D02*
X136330180Y-58717980D01*
X136330180Y-58717980D02*
X136330180Y-58622742D01*
X136377800Y-57908456D02*
X136330180Y-58003694D01*
X136330180Y-58003694D02*
X136330180Y-58194170D01*
X136330180Y-58194170D02*
X136377800Y-58289408D01*
X136377800Y-58289408D02*
X136473038Y-58337027D01*
X136473038Y-58337027D02*
X136853990Y-58337027D01*
X136853990Y-58337027D02*
X136949228Y-58289408D01*
X136949228Y-58289408D02*
X136996847Y-58194170D01*
X136996847Y-58194170D02*
X136996847Y-58003694D01*
X136996847Y-58003694D02*
X136949228Y-57908456D01*
X136949228Y-57908456D02*
X136853990Y-57860837D01*
X136853990Y-57860837D02*
X136758752Y-57860837D01*
X136758752Y-57860837D02*
X136663514Y-58337027D01*
X136377800Y-57479884D02*
X136330180Y-57384646D01*
X136330180Y-57384646D02*
X136330180Y-57194170D01*
X136330180Y-57194170D02*
X136377800Y-57098932D01*
X136377800Y-57098932D02*
X136473038Y-57051313D01*
X136473038Y-57051313D02*
X136520657Y-57051313D01*
X136520657Y-57051313D02*
X136615895Y-57098932D01*
X136615895Y-57098932D02*
X136663514Y-57194170D01*
X136663514Y-57194170D02*
X136663514Y-57337027D01*
X136663514Y-57337027D02*
X136711133Y-57432265D01*
X136711133Y-57432265D02*
X136806371Y-57479884D01*
X136806371Y-57479884D02*
X136853990Y-57479884D01*
X136853990Y-57479884D02*
X136949228Y-57432265D01*
X136949228Y-57432265D02*
X136996847Y-57337027D01*
X136996847Y-57337027D02*
X136996847Y-57194170D01*
X136996847Y-57194170D02*
X136949228Y-57098932D01*
X133230180Y-82013220D02*
X133896847Y-82013220D01*
X133706371Y-82013220D02*
X133801609Y-81965601D01*
X133801609Y-81965601D02*
X133849228Y-81917982D01*
X133849228Y-81917982D02*
X133896847Y-81822744D01*
X133896847Y-81822744D02*
X133896847Y-81727506D01*
X133230180Y-81394172D02*
X133896847Y-81394172D01*
X133801609Y-81394172D02*
X133849228Y-81346553D01*
X133849228Y-81346553D02*
X133896847Y-81251315D01*
X133896847Y-81251315D02*
X133896847Y-81108458D01*
X133896847Y-81108458D02*
X133849228Y-81013220D01*
X133849228Y-81013220D02*
X133753990Y-80965601D01*
X133753990Y-80965601D02*
X133230180Y-80965601D01*
X133753990Y-80965601D02*
X133849228Y-80917982D01*
X133849228Y-80917982D02*
X133896847Y-80822744D01*
X133896847Y-80822744D02*
X133896847Y-80679887D01*
X133896847Y-80679887D02*
X133849228Y-80584648D01*
X133849228Y-80584648D02*
X133753990Y-80537029D01*
X133753990Y-80537029D02*
X133230180Y-80537029D01*
X133230180Y-79632268D02*
X133753990Y-79632268D01*
X133753990Y-79632268D02*
X133849228Y-79679887D01*
X133849228Y-79679887D02*
X133896847Y-79775125D01*
X133896847Y-79775125D02*
X133896847Y-79965601D01*
X133896847Y-79965601D02*
X133849228Y-80060839D01*
X133277800Y-79632268D02*
X133230180Y-79727506D01*
X133230180Y-79727506D02*
X133230180Y-79965601D01*
X133230180Y-79965601D02*
X133277800Y-80060839D01*
X133277800Y-80060839D02*
X133373038Y-80108458D01*
X133373038Y-80108458D02*
X133468276Y-80108458D01*
X133468276Y-80108458D02*
X133563514Y-80060839D01*
X133563514Y-80060839D02*
X133611133Y-79965601D01*
X133611133Y-79965601D02*
X133611133Y-79727506D01*
X133611133Y-79727506D02*
X133658752Y-79632268D01*
X133230180Y-78727506D02*
X134230180Y-78727506D01*
X133277800Y-78727506D02*
X133230180Y-78822744D01*
X133230180Y-78822744D02*
X133230180Y-79013220D01*
X133230180Y-79013220D02*
X133277800Y-79108458D01*
X133277800Y-79108458D02*
X133325419Y-79156077D01*
X133325419Y-79156077D02*
X133420657Y-79203696D01*
X133420657Y-79203696D02*
X133706371Y-79203696D01*
X133706371Y-79203696D02*
X133801609Y-79156077D01*
X133801609Y-79156077D02*
X133849228Y-79108458D01*
X133849228Y-79108458D02*
X133896847Y-79013220D01*
X133896847Y-79013220D02*
X133896847Y-78822744D01*
X133896847Y-78822744D02*
X133849228Y-78727506D01*
X133230180Y-78251315D02*
X133896847Y-78251315D01*
X133706371Y-78251315D02*
X133801609Y-78203696D01*
X133801609Y-78203696D02*
X133849228Y-78156077D01*
X133849228Y-78156077D02*
X133896847Y-78060839D01*
X133896847Y-78060839D02*
X133896847Y-77965601D01*
X133230180Y-77632267D02*
X133896847Y-77632267D01*
X134230180Y-77632267D02*
X134182561Y-77679886D01*
X134182561Y-77679886D02*
X134134942Y-77632267D01*
X134134942Y-77632267D02*
X134182561Y-77584648D01*
X134182561Y-77584648D02*
X134230180Y-77632267D01*
X134230180Y-77632267D02*
X134134942Y-77632267D01*
X133896847Y-76727506D02*
X133087323Y-76727506D01*
X133087323Y-76727506D02*
X132992085Y-76775125D01*
X132992085Y-76775125D02*
X132944466Y-76822744D01*
X132944466Y-76822744D02*
X132896847Y-76917982D01*
X132896847Y-76917982D02*
X132896847Y-77060839D01*
X132896847Y-77060839D02*
X132944466Y-77156077D01*
X133277800Y-76727506D02*
X133230180Y-76822744D01*
X133230180Y-76822744D02*
X133230180Y-77013220D01*
X133230180Y-77013220D02*
X133277800Y-77108458D01*
X133277800Y-77108458D02*
X133325419Y-77156077D01*
X133325419Y-77156077D02*
X133420657Y-77203696D01*
X133420657Y-77203696D02*
X133706371Y-77203696D01*
X133706371Y-77203696D02*
X133801609Y-77156077D01*
X133801609Y-77156077D02*
X133849228Y-77108458D01*
X133849228Y-77108458D02*
X133896847Y-77013220D01*
X133896847Y-77013220D02*
X133896847Y-76822744D01*
X133896847Y-76822744D02*
X133849228Y-76727506D01*
X133230180Y-75822744D02*
X133753990Y-75822744D01*
X133753990Y-75822744D02*
X133849228Y-75870363D01*
X133849228Y-75870363D02*
X133896847Y-75965601D01*
X133896847Y-75965601D02*
X133896847Y-76156077D01*
X133896847Y-76156077D02*
X133849228Y-76251315D01*
X133277800Y-75822744D02*
X133230180Y-75917982D01*
X133230180Y-75917982D02*
X133230180Y-76156077D01*
X133230180Y-76156077D02*
X133277800Y-76251315D01*
X133277800Y-76251315D02*
X133373038Y-76298934D01*
X133373038Y-76298934D02*
X133468276Y-76298934D01*
X133468276Y-76298934D02*
X133563514Y-76251315D01*
X133563514Y-76251315D02*
X133611133Y-76156077D01*
X133611133Y-76156077D02*
X133611133Y-75917982D01*
X133611133Y-75917982D02*
X133658752Y-75822744D01*
X133230180Y-75203696D02*
X133277800Y-75298934D01*
X133277800Y-75298934D02*
X133373038Y-75346553D01*
X133373038Y-75346553D02*
X134230180Y-75346553D01*
X133230180Y-74822743D02*
X133896847Y-74822743D01*
X133801609Y-74822743D02*
X133849228Y-74775124D01*
X133849228Y-74775124D02*
X133896847Y-74679886D01*
X133896847Y-74679886D02*
X133896847Y-74537029D01*
X133896847Y-74537029D02*
X133849228Y-74441791D01*
X133849228Y-74441791D02*
X133753990Y-74394172D01*
X133753990Y-74394172D02*
X133230180Y-74394172D01*
X133753990Y-74394172D02*
X133849228Y-74346553D01*
X133849228Y-74346553D02*
X133896847Y-74251315D01*
X133896847Y-74251315D02*
X133896847Y-74108458D01*
X133896847Y-74108458D02*
X133849228Y-74013219D01*
X133849228Y-74013219D02*
X133753990Y-73965600D01*
X133753990Y-73965600D02*
X133230180Y-73965600D01*
X133230180Y-73346553D02*
X133277800Y-73441791D01*
X133277800Y-73441791D02*
X133325419Y-73489410D01*
X133325419Y-73489410D02*
X133420657Y-73537029D01*
X133420657Y-73537029D02*
X133706371Y-73537029D01*
X133706371Y-73537029D02*
X133801609Y-73489410D01*
X133801609Y-73489410D02*
X133849228Y-73441791D01*
X133849228Y-73441791D02*
X133896847Y-73346553D01*
X133896847Y-73346553D02*
X133896847Y-73203696D01*
X133896847Y-73203696D02*
X133849228Y-73108458D01*
X133849228Y-73108458D02*
X133801609Y-73060839D01*
X133801609Y-73060839D02*
X133706371Y-73013220D01*
X133706371Y-73013220D02*
X133420657Y-73013220D01*
X133420657Y-73013220D02*
X133325419Y-73060839D01*
X133325419Y-73060839D02*
X133277800Y-73108458D01*
X133277800Y-73108458D02*
X133230180Y-73203696D01*
X133230180Y-73203696D02*
X133230180Y-73346553D01*
X133896847Y-72584648D02*
X133230180Y-72584648D01*
X133801609Y-72584648D02*
X133849228Y-72537029D01*
X133849228Y-72537029D02*
X133896847Y-72441791D01*
X133896847Y-72441791D02*
X133896847Y-72298934D01*
X133896847Y-72298934D02*
X133849228Y-72203696D01*
X133849228Y-72203696D02*
X133753990Y-72156077D01*
X133753990Y-72156077D02*
X133230180Y-72156077D01*
X133896847Y-71822743D02*
X133896847Y-71441791D01*
X134230180Y-71679886D02*
X133373038Y-71679886D01*
X133373038Y-71679886D02*
X133277800Y-71632267D01*
X133277800Y-71632267D02*
X133230180Y-71537029D01*
X133230180Y-71537029D02*
X133230180Y-71441791D01*
X133277800Y-70727505D02*
X133230180Y-70822743D01*
X133230180Y-70822743D02*
X133230180Y-71013219D01*
X133230180Y-71013219D02*
X133277800Y-71108457D01*
X133277800Y-71108457D02*
X133373038Y-71156076D01*
X133373038Y-71156076D02*
X133753990Y-71156076D01*
X133753990Y-71156076D02*
X133849228Y-71108457D01*
X133849228Y-71108457D02*
X133896847Y-71013219D01*
X133896847Y-71013219D02*
X133896847Y-70822743D01*
X133896847Y-70822743D02*
X133849228Y-70727505D01*
X133849228Y-70727505D02*
X133753990Y-70679886D01*
X133753990Y-70679886D02*
X133658752Y-70679886D01*
X133658752Y-70679886D02*
X133563514Y-71156076D01*
X133277800Y-70298933D02*
X133230180Y-70203695D01*
X133230180Y-70203695D02*
X133230180Y-70013219D01*
X133230180Y-70013219D02*
X133277800Y-69917981D01*
X133277800Y-69917981D02*
X133373038Y-69870362D01*
X133373038Y-69870362D02*
X133420657Y-69870362D01*
X133420657Y-69870362D02*
X133515895Y-69917981D01*
X133515895Y-69917981D02*
X133563514Y-70013219D01*
X133563514Y-70013219D02*
X133563514Y-70156076D01*
X133563514Y-70156076D02*
X133611133Y-70251314D01*
X133611133Y-70251314D02*
X133706371Y-70298933D01*
X133706371Y-70298933D02*
X133753990Y-70298933D01*
X133753990Y-70298933D02*
X133849228Y-70251314D01*
X133849228Y-70251314D02*
X133896847Y-70156076D01*
X133896847Y-70156076D02*
X133896847Y-70013219D01*
X133896847Y-70013219D02*
X133849228Y-69917981D01*
X133706371Y-68822743D02*
X133753990Y-68870362D01*
X133753990Y-68870362D02*
X133801609Y-68965600D01*
X133801609Y-68965600D02*
X133801609Y-69060838D01*
X133801609Y-69060838D02*
X133753990Y-69156076D01*
X133753990Y-69156076D02*
X133706371Y-69203695D01*
X133706371Y-69203695D02*
X133611133Y-69251314D01*
X133611133Y-69251314D02*
X133515895Y-69251314D01*
X133515895Y-69251314D02*
X133420657Y-69203695D01*
X133420657Y-69203695D02*
X133373038Y-69156076D01*
X133373038Y-69156076D02*
X133325419Y-69060838D01*
X133325419Y-69060838D02*
X133325419Y-68965600D01*
X133325419Y-68965600D02*
X133373038Y-68870362D01*
X133373038Y-68870362D02*
X133420657Y-68822743D01*
X133801609Y-68822743D02*
X133420657Y-68822743D01*
X133420657Y-68822743D02*
X133373038Y-68775124D01*
X133373038Y-68775124D02*
X133373038Y-68727505D01*
X133373038Y-68727505D02*
X133420657Y-68632266D01*
X133420657Y-68632266D02*
X133515895Y-68584647D01*
X133515895Y-68584647D02*
X133753990Y-68584647D01*
X133753990Y-68584647D02*
X133896847Y-68679886D01*
X133896847Y-68679886D02*
X133992085Y-68822743D01*
X133992085Y-68822743D02*
X134039704Y-69013219D01*
X134039704Y-69013219D02*
X133992085Y-69203695D01*
X133992085Y-69203695D02*
X133896847Y-69346552D01*
X133896847Y-69346552D02*
X133753990Y-69441790D01*
X133753990Y-69441790D02*
X133563514Y-69489409D01*
X133563514Y-69489409D02*
X133373038Y-69441790D01*
X133373038Y-69441790D02*
X133230180Y-69346552D01*
X133230180Y-69346552D02*
X133134942Y-69203695D01*
X133134942Y-69203695D02*
X133087323Y-69013219D01*
X133087323Y-69013219D02*
X133134942Y-68822743D01*
X133134942Y-68822743D02*
X133230180Y-68679886D01*
X133896847Y-67727505D02*
X133087323Y-67727505D01*
X133087323Y-67727505D02*
X132992085Y-67775124D01*
X132992085Y-67775124D02*
X132944466Y-67822743D01*
X132944466Y-67822743D02*
X132896847Y-67917981D01*
X132896847Y-67917981D02*
X132896847Y-68060838D01*
X132896847Y-68060838D02*
X132944466Y-68156076D01*
X133277800Y-67727505D02*
X133230180Y-67822743D01*
X133230180Y-67822743D02*
X133230180Y-68013219D01*
X133230180Y-68013219D02*
X133277800Y-68108457D01*
X133277800Y-68108457D02*
X133325419Y-68156076D01*
X133325419Y-68156076D02*
X133420657Y-68203695D01*
X133420657Y-68203695D02*
X133706371Y-68203695D01*
X133706371Y-68203695D02*
X133801609Y-68156076D01*
X133801609Y-68156076D02*
X133849228Y-68108457D01*
X133849228Y-68108457D02*
X133896847Y-68013219D01*
X133896847Y-68013219D02*
X133896847Y-67822743D01*
X133896847Y-67822743D02*
X133849228Y-67727505D01*
X133230180Y-67251314D02*
X133896847Y-67251314D01*
X133801609Y-67251314D02*
X133849228Y-67203695D01*
X133849228Y-67203695D02*
X133896847Y-67108457D01*
X133896847Y-67108457D02*
X133896847Y-66965600D01*
X133896847Y-66965600D02*
X133849228Y-66870362D01*
X133849228Y-66870362D02*
X133753990Y-66822743D01*
X133753990Y-66822743D02*
X133230180Y-66822743D01*
X133753990Y-66822743D02*
X133849228Y-66775124D01*
X133849228Y-66775124D02*
X133896847Y-66679886D01*
X133896847Y-66679886D02*
X133896847Y-66537029D01*
X133896847Y-66537029D02*
X133849228Y-66441790D01*
X133849228Y-66441790D02*
X133753990Y-66394171D01*
X133753990Y-66394171D02*
X133230180Y-66394171D01*
X133230180Y-65489410D02*
X133753990Y-65489410D01*
X133753990Y-65489410D02*
X133849228Y-65537029D01*
X133849228Y-65537029D02*
X133896847Y-65632267D01*
X133896847Y-65632267D02*
X133896847Y-65822743D01*
X133896847Y-65822743D02*
X133849228Y-65917981D01*
X133277800Y-65489410D02*
X133230180Y-65584648D01*
X133230180Y-65584648D02*
X133230180Y-65822743D01*
X133230180Y-65822743D02*
X133277800Y-65917981D01*
X133277800Y-65917981D02*
X133373038Y-65965600D01*
X133373038Y-65965600D02*
X133468276Y-65965600D01*
X133468276Y-65965600D02*
X133563514Y-65917981D01*
X133563514Y-65917981D02*
X133611133Y-65822743D01*
X133611133Y-65822743D02*
X133611133Y-65584648D01*
X133611133Y-65584648D02*
X133658752Y-65489410D01*
X133230180Y-65013219D02*
X133896847Y-65013219D01*
X134230180Y-65013219D02*
X134182561Y-65060838D01*
X134182561Y-65060838D02*
X134134942Y-65013219D01*
X134134942Y-65013219D02*
X134182561Y-64965600D01*
X134182561Y-64965600D02*
X134230180Y-65013219D01*
X134230180Y-65013219D02*
X134134942Y-65013219D01*
X133230180Y-64394172D02*
X133277800Y-64489410D01*
X133277800Y-64489410D02*
X133373038Y-64537029D01*
X133373038Y-64537029D02*
X134230180Y-64537029D01*
X133325419Y-64013219D02*
X133277800Y-63965600D01*
X133277800Y-63965600D02*
X133230180Y-64013219D01*
X133230180Y-64013219D02*
X133277800Y-64060838D01*
X133277800Y-64060838D02*
X133325419Y-64013219D01*
X133325419Y-64013219D02*
X133230180Y-64013219D01*
X133277800Y-63108458D02*
X133230180Y-63203696D01*
X133230180Y-63203696D02*
X133230180Y-63394172D01*
X133230180Y-63394172D02*
X133277800Y-63489410D01*
X133277800Y-63489410D02*
X133325419Y-63537029D01*
X133325419Y-63537029D02*
X133420657Y-63584648D01*
X133420657Y-63584648D02*
X133706371Y-63584648D01*
X133706371Y-63584648D02*
X133801609Y-63537029D01*
X133801609Y-63537029D02*
X133849228Y-63489410D01*
X133849228Y-63489410D02*
X133896847Y-63394172D01*
X133896847Y-63394172D02*
X133896847Y-63203696D01*
X133896847Y-63203696D02*
X133849228Y-63108458D01*
X133230180Y-62537029D02*
X133277800Y-62632267D01*
X133277800Y-62632267D02*
X133325419Y-62679886D01*
X133325419Y-62679886D02*
X133420657Y-62727505D01*
X133420657Y-62727505D02*
X133706371Y-62727505D01*
X133706371Y-62727505D02*
X133801609Y-62679886D01*
X133801609Y-62679886D02*
X133849228Y-62632267D01*
X133849228Y-62632267D02*
X133896847Y-62537029D01*
X133896847Y-62537029D02*
X133896847Y-62394172D01*
X133896847Y-62394172D02*
X133849228Y-62298934D01*
X133849228Y-62298934D02*
X133801609Y-62251315D01*
X133801609Y-62251315D02*
X133706371Y-62203696D01*
X133706371Y-62203696D02*
X133420657Y-62203696D01*
X133420657Y-62203696D02*
X133325419Y-62251315D01*
X133325419Y-62251315D02*
X133277800Y-62298934D01*
X133277800Y-62298934D02*
X133230180Y-62394172D01*
X133230180Y-62394172D02*
X133230180Y-62537029D01*
X133230180Y-61775124D02*
X133896847Y-61775124D01*
X133801609Y-61775124D02*
X133849228Y-61727505D01*
X133849228Y-61727505D02*
X133896847Y-61632267D01*
X133896847Y-61632267D02*
X133896847Y-61489410D01*
X133896847Y-61489410D02*
X133849228Y-61394172D01*
X133849228Y-61394172D02*
X133753990Y-61346553D01*
X133753990Y-61346553D02*
X133230180Y-61346553D01*
X133753990Y-61346553D02*
X133849228Y-61298934D01*
X133849228Y-61298934D02*
X133896847Y-61203696D01*
X133896847Y-61203696D02*
X133896847Y-61060839D01*
X133896847Y-61060839D02*
X133849228Y-60965600D01*
X133849228Y-60965600D02*
X133753990Y-60917981D01*
X133753990Y-60917981D02*
X133230180Y-60917981D01*
%LPC*%
D11*
X114200000Y-98700000D03*
X114200000Y-43800000D03*
D12*
X131000000Y-93500000D03*
X119900000Y-61000000D03*
D13*
X149000000Y-95000000D03*
D14*
X149000000Y-92460000D03*
X151540000Y-95000000D03*
X151540000Y-92460000D03*
X154080000Y-95000000D03*
X154080000Y-92460000D03*
X156620000Y-95000000D03*
X156620000Y-92460000D03*
X159160000Y-95000000D03*
X159160000Y-92460000D03*
D12*
X131000000Y-49000000D03*
D13*
X149000000Y-50000000D03*
D14*
X149000000Y-47460000D03*
X151540000Y-50000000D03*
X151540000Y-47460000D03*
X154080000Y-50000000D03*
X154080000Y-47460000D03*
X156620000Y-50000000D03*
X156620000Y-47460000D03*
X159160000Y-50000000D03*
X159160000Y-47460000D03*
D12*
X119900000Y-81000000D03*
%LPD*%
D15*
X159200000Y-39800000D02*
G75*
G02*
X163200000Y-43800000I0J-4000000D01*
G01*
X144000000Y-87500000D02*
G75*
G02*
X140000000Y-83500000I0J4000000D01*
G01*
X144000000Y-87500000D02*
X159171573Y-87500000D01*
X163200000Y-51000000D02*
G75*
G02*
X159200000Y-55000000I-4000000J0D01*
G01*
X159171573Y-87500000D02*
G75*
G02*
X163200000Y-91471573I28427J-4000000D01*
G01*
X163200000Y-98671573D02*
G75*
G02*
X159228427Y-102700000I-4000000J-28427D01*
G01*
X110200000Y-43800000D02*
G75*
G02*
X114200000Y-39800000I4000000J0D01*
G01*
X163200000Y-91471575D02*
X163200000Y-98671573D01*
X114228427Y-102699999D02*
X159228427Y-102700000D01*
X144000000Y-55000000D02*
X159200000Y-55000000D01*
X140000000Y-59000000D02*
X140000000Y-83500000D01*
X110200000Y-43800000D02*
X110200000Y-98728427D01*
X114228427Y-102700000D02*
G75*
G02*
X110200000Y-98728427I-28427J4000000D01*
G01*
X163200000Y-43800000D02*
X163200000Y-51000000D01*
X140000000Y-59000000D02*
G75*
G02*
X144000000Y-55000000I4000000J0D01*
G01*
X114200000Y-39800000D02*
X159200000Y-39800000D01*
M02*
