G04 #@! TF.GenerationSoftware,KiCad,Pcbnew,9.0.3*
G04 #@! TF.CreationDate,2025-08-14T23:55:57-06:00*
G04 #@! TF.ProjectId,ProtoboardSourcePCB,50726f74-6f62-46f6-9172-64536f757263,rev?*
G04 #@! TF.SameCoordinates,Original*
G04 #@! TF.FileFunction,Copper,L2,Bot*
G04 #@! TF.FilePolarity,Positive*
%FSLAX46Y46*%
G04 Gerber Fmt 4.6, Leading zero omitted, Abs format (unit mm)*
G04 Created by KiCad (PCBNEW 9.0.3) date 2025-08-14 23:55:57*
%MOMM*%
%LPD*%
G01*
G04 APERTURE LIST*
G04 #@! TA.AperFunction,ComponentPad*
%ADD10C,12.000000*%
G04 #@! TD*
G04 #@! TA.AperFunction,ComponentPad*
%ADD11R,1.700000X1.700000*%
G04 #@! TD*
G04 #@! TA.AperFunction,ComponentPad*
%ADD12C,1.700000*%
G04 #@! TD*
G04 #@! TA.AperFunction,ViaPad*
%ADD13C,0.600000*%
G04 #@! TD*
G04 #@! TA.AperFunction,Profile*
%ADD14C,0.050000*%
G04 #@! TD*
G04 APERTURE END LIST*
D10*
X131000000Y-93500000D03*
X119900000Y-61000000D03*
D11*
X149000000Y-95000000D03*
D12*
X149000000Y-92460000D03*
X151540000Y-95000000D03*
X151540000Y-92460000D03*
X154080000Y-95000000D03*
X154080000Y-92460000D03*
X156620000Y-95000000D03*
X156620000Y-92460000D03*
X159160000Y-95000000D03*
X159160000Y-92460000D03*
D10*
X131000000Y-49000000D03*
D11*
X149000000Y-50000000D03*
D12*
X149000000Y-47460000D03*
X151540000Y-50000000D03*
X151540000Y-47460000D03*
X154080000Y-50000000D03*
X154080000Y-47460000D03*
X156620000Y-50000000D03*
X156620000Y-47460000D03*
X159160000Y-50000000D03*
X159160000Y-47460000D03*
D10*
X119900000Y-81000000D03*
D13*
X143000000Y-45337500D03*
X143000000Y-97400000D03*
G04 #@! TA.AperFunction,Conductor*
G36*
X150341444Y-93113999D02*
G01*
X150380486Y-93159056D01*
X150384951Y-93167820D01*
X150509890Y-93339786D01*
X150660213Y-93490109D01*
X150832179Y-93615048D01*
X150832181Y-93615049D01*
X150832184Y-93615051D01*
X150841493Y-93619794D01*
X150892290Y-93667766D01*
X150909087Y-93735587D01*
X150886552Y-93801722D01*
X150841505Y-93840760D01*
X150832446Y-93845376D01*
X150832440Y-93845380D01*
X150778282Y-93884727D01*
X150778282Y-93884728D01*
X151410591Y-94517037D01*
X151347007Y-94534075D01*
X151232993Y-94599901D01*
X151139901Y-94692993D01*
X151074075Y-94807007D01*
X151057037Y-94870591D01*
X150387642Y-94201196D01*
X150354157Y-94139873D01*
X150355077Y-94125166D01*
X150352501Y-94125444D01*
X150343596Y-94042619D01*
X150293354Y-93907913D01*
X150293350Y-93907906D01*
X150207190Y-93792812D01*
X150207187Y-93792809D01*
X150092093Y-93706649D01*
X150092088Y-93706646D01*
X149960528Y-93657577D01*
X149904595Y-93615705D01*
X149880178Y-93550241D01*
X149895030Y-93481968D01*
X149916175Y-93453720D01*
X150030104Y-93339792D01*
X150155051Y-93167816D01*
X150159514Y-93159054D01*
X150207488Y-93108259D01*
X150275308Y-93091463D01*
X150341444Y-93113999D01*
G37*
G04 #@! TD.AperFunction*
G04 #@! TA.AperFunction,Conductor*
G36*
X152881444Y-93113999D02*
G01*
X152920486Y-93159056D01*
X152924951Y-93167820D01*
X153049890Y-93339786D01*
X153200213Y-93490109D01*
X153372179Y-93615048D01*
X153372181Y-93615049D01*
X153372184Y-93615051D01*
X153381493Y-93619794D01*
X153432290Y-93667766D01*
X153449087Y-93735587D01*
X153426552Y-93801722D01*
X153381505Y-93840760D01*
X153372446Y-93845376D01*
X153372440Y-93845380D01*
X153318282Y-93884727D01*
X153318282Y-93884728D01*
X153950591Y-94517037D01*
X153887007Y-94534075D01*
X153772993Y-94599901D01*
X153679901Y-94692993D01*
X153614075Y-94807007D01*
X153597037Y-94870591D01*
X152964728Y-94238282D01*
X152964727Y-94238282D01*
X152925380Y-94292440D01*
X152920483Y-94302051D01*
X152872506Y-94352845D01*
X152804684Y-94369638D01*
X152738550Y-94347098D01*
X152699516Y-94302048D01*
X152694626Y-94292452D01*
X152655270Y-94238282D01*
X152655269Y-94238282D01*
X152022962Y-94870590D01*
X152005925Y-94807007D01*
X151940099Y-94692993D01*
X151847007Y-94599901D01*
X151732993Y-94534075D01*
X151669409Y-94517037D01*
X152301716Y-93884728D01*
X152247547Y-93845373D01*
X152247547Y-93845372D01*
X152238500Y-93840763D01*
X152187706Y-93792788D01*
X152170912Y-93724966D01*
X152193451Y-93658832D01*
X152238508Y-93619793D01*
X152247816Y-93615051D01*
X152337020Y-93550241D01*
X152419786Y-93490109D01*
X152419788Y-93490106D01*
X152419792Y-93490104D01*
X152570104Y-93339792D01*
X152570106Y-93339788D01*
X152570109Y-93339786D01*
X152695048Y-93167820D01*
X152695047Y-93167820D01*
X152695051Y-93167816D01*
X152699514Y-93159054D01*
X152747488Y-93108259D01*
X152815308Y-93091463D01*
X152881444Y-93113999D01*
G37*
G04 #@! TD.AperFunction*
G04 #@! TA.AperFunction,Conductor*
G36*
X155421444Y-93113999D02*
G01*
X155460486Y-93159056D01*
X155464951Y-93167820D01*
X155589890Y-93339786D01*
X155740213Y-93490109D01*
X155912179Y-93615048D01*
X155912181Y-93615049D01*
X155912184Y-93615051D01*
X155921493Y-93619794D01*
X155972290Y-93667766D01*
X155989087Y-93735587D01*
X155966552Y-93801722D01*
X155921505Y-93840760D01*
X155912446Y-93845376D01*
X155912440Y-93845380D01*
X155858282Y-93884727D01*
X155858282Y-93884728D01*
X156490591Y-94517037D01*
X156427007Y-94534075D01*
X156312993Y-94599901D01*
X156219901Y-94692993D01*
X156154075Y-94807007D01*
X156137037Y-94870591D01*
X155504728Y-94238282D01*
X155504727Y-94238282D01*
X155465380Y-94292440D01*
X155460483Y-94302051D01*
X155412506Y-94352845D01*
X155344684Y-94369638D01*
X155278550Y-94347098D01*
X155239516Y-94302048D01*
X155234626Y-94292452D01*
X155195270Y-94238282D01*
X155195269Y-94238282D01*
X154562962Y-94870590D01*
X154545925Y-94807007D01*
X154480099Y-94692993D01*
X154387007Y-94599901D01*
X154272993Y-94534075D01*
X154209409Y-94517037D01*
X154841716Y-93884728D01*
X154787547Y-93845373D01*
X154787547Y-93845372D01*
X154778500Y-93840763D01*
X154727706Y-93792788D01*
X154710912Y-93724966D01*
X154733451Y-93658832D01*
X154778508Y-93619793D01*
X154787816Y-93615051D01*
X154877020Y-93550241D01*
X154959786Y-93490109D01*
X154959788Y-93490106D01*
X154959792Y-93490104D01*
X155110104Y-93339792D01*
X155110106Y-93339788D01*
X155110109Y-93339786D01*
X155235048Y-93167820D01*
X155235047Y-93167820D01*
X155235051Y-93167816D01*
X155239514Y-93159054D01*
X155287488Y-93108259D01*
X155355308Y-93091463D01*
X155421444Y-93113999D01*
G37*
G04 #@! TD.AperFunction*
G04 #@! TA.AperFunction,Conductor*
G36*
X157961444Y-93113999D02*
G01*
X158000486Y-93159056D01*
X158004951Y-93167820D01*
X158129890Y-93339786D01*
X158280213Y-93490109D01*
X158452179Y-93615048D01*
X158452181Y-93615049D01*
X158452184Y-93615051D01*
X158461493Y-93619794D01*
X158512290Y-93667766D01*
X158529087Y-93735587D01*
X158506552Y-93801722D01*
X158461505Y-93840760D01*
X158452446Y-93845376D01*
X158452440Y-93845380D01*
X158398282Y-93884727D01*
X158398282Y-93884728D01*
X159030591Y-94517037D01*
X158967007Y-94534075D01*
X158852993Y-94599901D01*
X158759901Y-94692993D01*
X158694075Y-94807007D01*
X158677037Y-94870591D01*
X158044728Y-94238282D01*
X158044727Y-94238282D01*
X158005380Y-94292440D01*
X158000483Y-94302051D01*
X157952506Y-94352845D01*
X157884684Y-94369638D01*
X157818550Y-94347098D01*
X157779516Y-94302048D01*
X157774626Y-94292452D01*
X157735270Y-94238282D01*
X157735269Y-94238282D01*
X157102962Y-94870590D01*
X157085925Y-94807007D01*
X157020099Y-94692993D01*
X156927007Y-94599901D01*
X156812993Y-94534075D01*
X156749409Y-94517037D01*
X157381716Y-93884728D01*
X157327547Y-93845373D01*
X157327547Y-93845372D01*
X157318500Y-93840763D01*
X157267706Y-93792788D01*
X157250912Y-93724966D01*
X157273451Y-93658832D01*
X157318508Y-93619793D01*
X157327816Y-93615051D01*
X157417020Y-93550241D01*
X157499786Y-93490109D01*
X157499788Y-93490106D01*
X157499792Y-93490104D01*
X157650104Y-93339792D01*
X157650106Y-93339788D01*
X157650109Y-93339786D01*
X157775048Y-93167820D01*
X157775047Y-93167820D01*
X157775051Y-93167816D01*
X157779514Y-93159054D01*
X157827488Y-93108259D01*
X157895308Y-93091463D01*
X157961444Y-93113999D01*
G37*
G04 #@! TD.AperFunction*
G04 #@! TA.AperFunction,Conductor*
G36*
X139442539Y-72019685D02*
G01*
X139488294Y-72072489D01*
X139499500Y-72124000D01*
X139499500Y-83696500D01*
X139533751Y-84087995D01*
X139533751Y-84087999D01*
X139601991Y-84475005D01*
X139601993Y-84475015D01*
X139703707Y-84854616D01*
X139703708Y-84854618D01*
X139703708Y-84854619D01*
X139838124Y-85223921D01*
X140004195Y-85580062D01*
X140004207Y-85580086D01*
X140200695Y-85920412D01*
X140200704Y-85920427D01*
X140426115Y-86242347D01*
X140566069Y-86409137D01*
X140678722Y-86543391D01*
X140956609Y-86821278D01*
X140989424Y-86848813D01*
X141257652Y-87073884D01*
X141257658Y-87073888D01*
X141257659Y-87073889D01*
X141579579Y-87299300D01*
X141919920Y-87495796D01*
X141919934Y-87495802D01*
X141919937Y-87495804D01*
X142276078Y-87661875D01*
X142276083Y-87661876D01*
X142276092Y-87661881D01*
X142645384Y-87796293D01*
X143024985Y-87898007D01*
X143412007Y-87966249D01*
X143803502Y-88000499D01*
X143803503Y-88000500D01*
X143803504Y-88000500D01*
X143934108Y-88000500D01*
X159097894Y-88000500D01*
X159107490Y-88000500D01*
X159109239Y-88000956D01*
X159172604Y-88000504D01*
X159172973Y-88000505D01*
X159173040Y-88000524D01*
X159178141Y-88000613D01*
X159512186Y-88014645D01*
X159524290Y-88015751D01*
X159852309Y-88062028D01*
X159864232Y-88064312D01*
X160186148Y-88142520D01*
X160197800Y-88145965D01*
X160510480Y-88255344D01*
X160521739Y-88259913D01*
X160822213Y-88399422D01*
X160832964Y-88405071D01*
X161118300Y-88573350D01*
X161128465Y-88580038D01*
X161395937Y-88775479D01*
X161405376Y-88783114D01*
X161652396Y-89003822D01*
X161661062Y-89012365D01*
X161885259Y-89256223D01*
X161893042Y-89265571D01*
X162092259Y-89530232D01*
X162099088Y-89540295D01*
X162271404Y-89823209D01*
X162277216Y-89833900D01*
X162420965Y-90132324D01*
X162425702Y-90143533D01*
X162539511Y-90454624D01*
X162543126Y-90466243D01*
X162625898Y-90786996D01*
X162628356Y-90798914D01*
X162679287Y-91126215D01*
X162680566Y-91138317D01*
X162696968Y-91429896D01*
X162699304Y-91471413D01*
X162699500Y-91478377D01*
X162699500Y-98597897D01*
X162699499Y-98607489D01*
X162699044Y-98609239D01*
X162699494Y-98672465D01*
X162699494Y-98672975D01*
X162699474Y-98673042D01*
X162699385Y-98678169D01*
X162685354Y-99012178D01*
X162684247Y-99024296D01*
X162637973Y-99352295D01*
X162635684Y-99364247D01*
X162557481Y-99686139D01*
X162554031Y-99697809D01*
X162444658Y-100010472D01*
X162440082Y-100021747D01*
X162300582Y-100322202D01*
X162294922Y-100332974D01*
X162126649Y-100618300D01*
X162119960Y-100628466D01*
X161924529Y-100895926D01*
X161916876Y-100905387D01*
X161696177Y-101152396D01*
X161687634Y-101161062D01*
X161443776Y-101385259D01*
X161434425Y-101393045D01*
X161169774Y-101592255D01*
X161159704Y-101599088D01*
X160876790Y-101771404D01*
X160866099Y-101777216D01*
X160567675Y-101920965D01*
X160556466Y-101925702D01*
X160245375Y-102039511D01*
X160233756Y-102043126D01*
X159913003Y-102125898D01*
X159901085Y-102128356D01*
X159573784Y-102179287D01*
X159561682Y-102180566D01*
X159228585Y-102199303D01*
X159221621Y-102199499D01*
X114302098Y-102199499D01*
X114292505Y-102199498D01*
X114290761Y-102199044D01*
X114227533Y-102199494D01*
X114227025Y-102199494D01*
X114226958Y-102199474D01*
X114221829Y-102199385D01*
X113887821Y-102185354D01*
X113875703Y-102184247D01*
X113547704Y-102137973D01*
X113535752Y-102135684D01*
X113213860Y-102057481D01*
X113202190Y-102054031D01*
X112889527Y-101944658D01*
X112878252Y-101940082D01*
X112577797Y-101800582D01*
X112567025Y-101794922D01*
X112537002Y-101777216D01*
X112281699Y-101626649D01*
X112271533Y-101619960D01*
X112196390Y-101565053D01*
X112004064Y-101424522D01*
X111994621Y-101416883D01*
X111747600Y-101196174D01*
X111738937Y-101187634D01*
X111514735Y-100943770D01*
X111506954Y-100934425D01*
X111307736Y-100669763D01*
X111300918Y-100659715D01*
X111128595Y-100376790D01*
X111122783Y-100366099D01*
X111106827Y-100332974D01*
X110979030Y-100067667D01*
X110974297Y-100056466D01*
X110961595Y-100021747D01*
X110860488Y-99745375D01*
X110856873Y-99733756D01*
X110774101Y-99413003D01*
X110771643Y-99401085D01*
X110755307Y-99296104D01*
X110720710Y-99073765D01*
X110719434Y-99061700D01*
X110700696Y-98728585D01*
X110700500Y-98721621D01*
X110700500Y-98578711D01*
X112349500Y-98578711D01*
X112349500Y-98821288D01*
X112381161Y-99061785D01*
X112443947Y-99296104D01*
X112536773Y-99520205D01*
X112536776Y-99520212D01*
X112658064Y-99730289D01*
X112658066Y-99730292D01*
X112658067Y-99730293D01*
X112805733Y-99922736D01*
X112805739Y-99922743D01*
X112977256Y-100094260D01*
X112977262Y-100094265D01*
X113169711Y-100241936D01*
X113379788Y-100363224D01*
X113603900Y-100456054D01*
X113838211Y-100518838D01*
X114018586Y-100542584D01*
X114078711Y-100550500D01*
X114078712Y-100550500D01*
X114321289Y-100550500D01*
X114369388Y-100544167D01*
X114561789Y-100518838D01*
X114796100Y-100456054D01*
X115020212Y-100363224D01*
X115230289Y-100241936D01*
X115422738Y-100094265D01*
X115594265Y-99922738D01*
X115741936Y-99730289D01*
X115863224Y-99520212D01*
X115956054Y-99296100D01*
X116018838Y-99061789D01*
X116050500Y-98821288D01*
X116050500Y-98578712D01*
X116018838Y-98338211D01*
X115956054Y-98103900D01*
X115863224Y-97879788D01*
X115741936Y-97669711D01*
X115594265Y-97477262D01*
X115594260Y-97477256D01*
X115422743Y-97305739D01*
X115422736Y-97305733D01*
X115230293Y-97158067D01*
X115230292Y-97158066D01*
X115230289Y-97158064D01*
X115020212Y-97036776D01*
X115020205Y-97036773D01*
X114796104Y-96943947D01*
X114561785Y-96881161D01*
X114321289Y-96849500D01*
X114321288Y-96849500D01*
X114078712Y-96849500D01*
X114078711Y-96849500D01*
X113838214Y-96881161D01*
X113603895Y-96943947D01*
X113379794Y-97036773D01*
X113379785Y-97036777D01*
X113169706Y-97158067D01*
X112977263Y-97305733D01*
X112977256Y-97305739D01*
X112805739Y-97477256D01*
X112805733Y-97477263D01*
X112658067Y-97669706D01*
X112536777Y-97879785D01*
X112536773Y-97879794D01*
X112443947Y-98103895D01*
X112381161Y-98338214D01*
X112349500Y-98578711D01*
X110700500Y-98578711D01*
X110700500Y-92353713D01*
X147649500Y-92353713D01*
X147649500Y-92566286D01*
X147682753Y-92776239D01*
X147748444Y-92978414D01*
X147844951Y-93167820D01*
X147969890Y-93339786D01*
X148083818Y-93453714D01*
X148117303Y-93515037D01*
X148112319Y-93584729D01*
X148070447Y-93640662D01*
X148039471Y-93657577D01*
X147907912Y-93706646D01*
X147907906Y-93706649D01*
X147792812Y-93792809D01*
X147792809Y-93792812D01*
X147706649Y-93907906D01*
X147706645Y-93907913D01*
X147656403Y-94042620D01*
X147656401Y-94042627D01*
X147650000Y-94102155D01*
X147650000Y-94750000D01*
X148566988Y-94750000D01*
X148534075Y-94807007D01*
X148500000Y-94934174D01*
X148500000Y-95065826D01*
X148534075Y-95192993D01*
X148566988Y-95250000D01*
X147650000Y-95250000D01*
X147650000Y-95897844D01*
X147656401Y-95957372D01*
X147656403Y-95957379D01*
X147706645Y-96092086D01*
X147706649Y-96092093D01*
X147792809Y-96207187D01*
X147792812Y-96207190D01*
X147907906Y-96293350D01*
X147907913Y-96293354D01*
X148042620Y-96343596D01*
X148042627Y-96343598D01*
X148102155Y-96349999D01*
X148102172Y-96350000D01*
X148750000Y-96350000D01*
X148750000Y-95433012D01*
X148807007Y-95465925D01*
X148934174Y-95500000D01*
X149065826Y-95500000D01*
X149192993Y-95465925D01*
X149250000Y-95433012D01*
X149250000Y-96350000D01*
X149897828Y-96350000D01*
X149897844Y-96349999D01*
X149957372Y-96343598D01*
X149957379Y-96343596D01*
X150092086Y-96293354D01*
X150092093Y-96293350D01*
X150207187Y-96207190D01*
X150207190Y-96207187D01*
X150293350Y-96092093D01*
X150293354Y-96092086D01*
X150315529Y-96032632D01*
X150354319Y-95859390D01*
X150354682Y-95858734D01*
X150354642Y-95857984D01*
X150387642Y-95798802D01*
X151057037Y-95129408D01*
X151074075Y-95192993D01*
X151139901Y-95307007D01*
X151232993Y-95400099D01*
X151347007Y-95465925D01*
X151410590Y-95482962D01*
X150778282Y-96115269D01*
X150778282Y-96115270D01*
X150832449Y-96154624D01*
X151021782Y-96251095D01*
X151223870Y-96316757D01*
X151433754Y-96350000D01*
X151646246Y-96350000D01*
X151856127Y-96316757D01*
X151856130Y-96316757D01*
X152058217Y-96251095D01*
X152247554Y-96154622D01*
X152301716Y-96115270D01*
X152301717Y-96115270D01*
X151669408Y-95482962D01*
X151732993Y-95465925D01*
X151847007Y-95400099D01*
X151940099Y-95307007D01*
X152005925Y-95192993D01*
X152022962Y-95129408D01*
X152655270Y-95761717D01*
X152655270Y-95761716D01*
X152694622Y-95707554D01*
X152699514Y-95697954D01*
X152747488Y-95647157D01*
X152815308Y-95630361D01*
X152881444Y-95652897D01*
X152920486Y-95697954D01*
X152925375Y-95707550D01*
X152964728Y-95761716D01*
X153597037Y-95129408D01*
X153614075Y-95192993D01*
X153679901Y-95307007D01*
X153772993Y-95400099D01*
X153887007Y-95465925D01*
X153950590Y-95482962D01*
X153318282Y-96115269D01*
X153318282Y-96115270D01*
X153372449Y-96154624D01*
X153561782Y-96251095D01*
X153763870Y-96316757D01*
X153973754Y-96350000D01*
X154186246Y-96350000D01*
X154396127Y-96316757D01*
X154396130Y-96316757D01*
X154598217Y-96251095D01*
X154787554Y-96154622D01*
X154841716Y-96115270D01*
X154841717Y-96115270D01*
X154209408Y-95482962D01*
X154272993Y-95465925D01*
X154387007Y-95400099D01*
X154480099Y-95307007D01*
X154545925Y-95192993D01*
X154562962Y-95129409D01*
X155195270Y-95761717D01*
X155195270Y-95761716D01*
X155234622Y-95707554D01*
X155239514Y-95697954D01*
X155287488Y-95647157D01*
X155355308Y-95630361D01*
X155421444Y-95652897D01*
X155460486Y-95697954D01*
X155465375Y-95707550D01*
X155504728Y-95761716D01*
X156137037Y-95129408D01*
X156154075Y-95192993D01*
X156219901Y-95307007D01*
X156312993Y-95400099D01*
X156427007Y-95465925D01*
X156490590Y-95482962D01*
X155858282Y-96115269D01*
X155858282Y-96115270D01*
X155912449Y-96154624D01*
X156101782Y-96251095D01*
X156303870Y-96316757D01*
X156513754Y-96350000D01*
X156726246Y-96350000D01*
X156936127Y-96316757D01*
X156936130Y-96316757D01*
X157138217Y-96251095D01*
X157327554Y-96154622D01*
X157381716Y-96115270D01*
X157381717Y-96115270D01*
X156749408Y-95482962D01*
X156812993Y-95465925D01*
X156927007Y-95400099D01*
X157020099Y-95307007D01*
X157085925Y-95192993D01*
X157102962Y-95129408D01*
X157735270Y-95761717D01*
X157735270Y-95761716D01*
X157774622Y-95707554D01*
X157779514Y-95697954D01*
X157827488Y-95647157D01*
X157895308Y-95630361D01*
X157961444Y-95652897D01*
X158000486Y-95697954D01*
X158005375Y-95707550D01*
X158044728Y-95761716D01*
X158677037Y-95129408D01*
X158694075Y-95192993D01*
X158759901Y-95307007D01*
X158852993Y-95400099D01*
X158967007Y-95465925D01*
X159030590Y-95482962D01*
X158398282Y-96115269D01*
X158398282Y-96115270D01*
X158452449Y-96154624D01*
X158641782Y-96251095D01*
X158843870Y-96316757D01*
X159053754Y-96350000D01*
X159266246Y-96350000D01*
X159476127Y-96316757D01*
X159476130Y-96316757D01*
X159678217Y-96251095D01*
X159867554Y-96154622D01*
X159921716Y-96115270D01*
X159921717Y-96115270D01*
X159289408Y-95482962D01*
X159352993Y-95465925D01*
X159467007Y-95400099D01*
X159560099Y-95307007D01*
X159625925Y-95192993D01*
X159642962Y-95129408D01*
X160275270Y-95761717D01*
X160275270Y-95761716D01*
X160314622Y-95707554D01*
X160411095Y-95518217D01*
X160476757Y-95316130D01*
X160476757Y-95316127D01*
X160510000Y-95106246D01*
X160510000Y-94893753D01*
X160476757Y-94683872D01*
X160476757Y-94683869D01*
X160411095Y-94481782D01*
X160314624Y-94292449D01*
X160275270Y-94238282D01*
X160275269Y-94238282D01*
X159642962Y-94870590D01*
X159625925Y-94807007D01*
X159560099Y-94692993D01*
X159467007Y-94599901D01*
X159352993Y-94534075D01*
X159289409Y-94517037D01*
X159921716Y-93884728D01*
X159867547Y-93845373D01*
X159867547Y-93845372D01*
X159858500Y-93840763D01*
X159807706Y-93792788D01*
X159790912Y-93724966D01*
X159813451Y-93658832D01*
X159858508Y-93619793D01*
X159867816Y-93615051D01*
X159957020Y-93550241D01*
X160039786Y-93490109D01*
X160039788Y-93490106D01*
X160039792Y-93490104D01*
X160190104Y-93339792D01*
X160190106Y-93339788D01*
X160190109Y-93339786D01*
X160315048Y-93167820D01*
X160315047Y-93167820D01*
X160315051Y-93167816D01*
X160411557Y-92978412D01*
X160477246Y-92776243D01*
X160510500Y-92566287D01*
X160510500Y-92353713D01*
X160477246Y-92143757D01*
X160411557Y-91941588D01*
X160315051Y-91752184D01*
X160315049Y-91752181D01*
X160315048Y-91752179D01*
X160190109Y-91580213D01*
X160039786Y-91429890D01*
X159867820Y-91304951D01*
X159678414Y-91208444D01*
X159678413Y-91208443D01*
X159678412Y-91208443D01*
X159476243Y-91142754D01*
X159476241Y-91142753D01*
X159476240Y-91142753D01*
X159314957Y-91117208D01*
X159266287Y-91109500D01*
X159053713Y-91109500D01*
X159005042Y-91117208D01*
X158843760Y-91142753D01*
X158641585Y-91208444D01*
X158452179Y-91304951D01*
X158280213Y-91429890D01*
X158129890Y-91580213D01*
X158004949Y-91752182D01*
X158000484Y-91760946D01*
X157952509Y-91811742D01*
X157884688Y-91828536D01*
X157818553Y-91805998D01*
X157779516Y-91760946D01*
X157775050Y-91752182D01*
X157650109Y-91580213D01*
X157499786Y-91429890D01*
X157327820Y-91304951D01*
X157138414Y-91208444D01*
X157138413Y-91208443D01*
X157138412Y-91208443D01*
X156936243Y-91142754D01*
X156936241Y-91142753D01*
X156936240Y-91142753D01*
X156774957Y-91117208D01*
X156726287Y-91109500D01*
X156513713Y-91109500D01*
X156465042Y-91117208D01*
X156303760Y-91142753D01*
X156101585Y-91208444D01*
X155912179Y-91304951D01*
X155740213Y-91429890D01*
X155589890Y-91580213D01*
X155464949Y-91752182D01*
X155460484Y-91760946D01*
X155412509Y-91811742D01*
X155344688Y-91828536D01*
X155278553Y-91805998D01*
X155239516Y-91760946D01*
X155235050Y-91752182D01*
X155110109Y-91580213D01*
X154959786Y-91429890D01*
X154787820Y-91304951D01*
X154598414Y-91208444D01*
X154598413Y-91208443D01*
X154598412Y-91208443D01*
X154396243Y-91142754D01*
X154396241Y-91142753D01*
X154396240Y-91142753D01*
X154234957Y-91117208D01*
X154186287Y-91109500D01*
X153973713Y-91109500D01*
X153925042Y-91117208D01*
X153763760Y-91142753D01*
X153561585Y-91208444D01*
X153372179Y-91304951D01*
X153200213Y-91429890D01*
X153049890Y-91580213D01*
X152924949Y-91752182D01*
X152920484Y-91760946D01*
X152872509Y-91811742D01*
X152804688Y-91828536D01*
X152738553Y-91805998D01*
X152699516Y-91760946D01*
X152695050Y-91752182D01*
X152570109Y-91580213D01*
X152419786Y-91429890D01*
X152247820Y-91304951D01*
X152058414Y-91208444D01*
X152058413Y-91208443D01*
X152058412Y-91208443D01*
X151856243Y-91142754D01*
X151856241Y-91142753D01*
X151856240Y-91142753D01*
X151694957Y-91117208D01*
X151646287Y-91109500D01*
X151433713Y-91109500D01*
X151385042Y-91117208D01*
X151223760Y-91142753D01*
X151021585Y-91208444D01*
X150832179Y-91304951D01*
X150660213Y-91429890D01*
X150509890Y-91580213D01*
X150384949Y-91752182D01*
X150380484Y-91760946D01*
X150332509Y-91811742D01*
X150264688Y-91828536D01*
X150198553Y-91805998D01*
X150159516Y-91760946D01*
X150155050Y-91752182D01*
X150030109Y-91580213D01*
X149879786Y-91429890D01*
X149707820Y-91304951D01*
X149518414Y-91208444D01*
X149518413Y-91208443D01*
X149518412Y-91208443D01*
X149316243Y-91142754D01*
X149316241Y-91142753D01*
X149316240Y-91142753D01*
X149154957Y-91117208D01*
X149106287Y-91109500D01*
X148893713Y-91109500D01*
X148845042Y-91117208D01*
X148683760Y-91142753D01*
X148481585Y-91208444D01*
X148292179Y-91304951D01*
X148120213Y-91429890D01*
X147969890Y-91580213D01*
X147844951Y-91752179D01*
X147748444Y-91941585D01*
X147682753Y-92143760D01*
X147649500Y-92353713D01*
X110700500Y-92353713D01*
X110700500Y-80744595D01*
X113399500Y-80744595D01*
X113399500Y-81255405D01*
X113439577Y-81764641D01*
X113519486Y-82269163D01*
X113638732Y-82765860D01*
X113638736Y-82765871D01*
X113796578Y-83251664D01*
X113872149Y-83434108D01*
X113992060Y-83723598D01*
X114223963Y-84178733D01*
X114223968Y-84178741D01*
X114223970Y-84178745D01*
X114223973Y-84178752D01*
X114490855Y-84614261D01*
X114490862Y-84614272D01*
X114791102Y-85027518D01*
X114791112Y-85027532D01*
X114895414Y-85149653D01*
X115122853Y-85415949D01*
X115484051Y-85777147D01*
X115484057Y-85777152D01*
X115872467Y-86108887D01*
X115872474Y-86108892D01*
X116285729Y-86409139D01*
X116412417Y-86486773D01*
X116721247Y-86676026D01*
X116721253Y-86676028D01*
X116721267Y-86676037D01*
X117176402Y-86907940D01*
X117628191Y-87095077D01*
X117648335Y-87103421D01*
X117771859Y-87143556D01*
X118134140Y-87261268D01*
X118630837Y-87380514D01*
X119135359Y-87460423D01*
X119644595Y-87500500D01*
X119644603Y-87500500D01*
X120155397Y-87500500D01*
X120155405Y-87500500D01*
X120664641Y-87460423D01*
X121169163Y-87380514D01*
X121665860Y-87261268D01*
X122151670Y-87103419D01*
X122623598Y-86907940D01*
X123078733Y-86676037D01*
X123078748Y-86676027D01*
X123078752Y-86676026D01*
X123295188Y-86543393D01*
X123514271Y-86409139D01*
X123927526Y-86108892D01*
X124315949Y-85777147D01*
X124677147Y-85415949D01*
X125008892Y-85027526D01*
X125309139Y-84614271D01*
X125479108Y-84336905D01*
X125576026Y-84178752D01*
X125576027Y-84178748D01*
X125576037Y-84178733D01*
X125807940Y-83723598D01*
X126003419Y-83251670D01*
X126161268Y-82765860D01*
X126280514Y-82269163D01*
X126360423Y-81764641D01*
X126400500Y-81255405D01*
X126400500Y-80744595D01*
X126360423Y-80235359D01*
X126280514Y-79730837D01*
X126161268Y-79234140D01*
X126003419Y-78748330D01*
X125807940Y-78276402D01*
X125576037Y-77821267D01*
X125576028Y-77821253D01*
X125576026Y-77821247D01*
X125386773Y-77512417D01*
X125309139Y-77385729D01*
X125008892Y-76972474D01*
X125008887Y-76972467D01*
X124677152Y-76584057D01*
X124677147Y-76584051D01*
X124315949Y-76222853D01*
X124315942Y-76222847D01*
X123927532Y-75891112D01*
X123927518Y-75891102D01*
X123514272Y-75590862D01*
X123514271Y-75590861D01*
X123482786Y-75571567D01*
X123078752Y-75323973D01*
X123078745Y-75323970D01*
X123078741Y-75323968D01*
X123078733Y-75323963D01*
X122623598Y-75092060D01*
X122472398Y-75029431D01*
X122151664Y-74896578D01*
X121806007Y-74784268D01*
X121665860Y-74738732D01*
X121169163Y-74619486D01*
X120664641Y-74539577D01*
X120155410Y-74499500D01*
X120155405Y-74499500D01*
X119644595Y-74499500D01*
X119644589Y-74499500D01*
X119135358Y-74539577D01*
X119135357Y-74539577D01*
X118630842Y-74619485D01*
X118630839Y-74619485D01*
X118630837Y-74619486D01*
X118452958Y-74662190D01*
X118134151Y-74738729D01*
X118134145Y-74738730D01*
X118134140Y-74738732D01*
X118134128Y-74738736D01*
X117648335Y-74896578D01*
X117176404Y-75092059D01*
X117176402Y-75092060D01*
X116721267Y-75323963D01*
X116721263Y-75323965D01*
X116721254Y-75323970D01*
X116721247Y-75323973D01*
X116285738Y-75590855D01*
X116285727Y-75590862D01*
X115872481Y-75891102D01*
X115872467Y-75891112D01*
X115484057Y-76222847D01*
X115484043Y-76222860D01*
X115122860Y-76584043D01*
X115122847Y-76584057D01*
X114791112Y-76972467D01*
X114791102Y-76972481D01*
X114490862Y-77385727D01*
X114490855Y-77385738D01*
X114223973Y-77821247D01*
X114223970Y-77821254D01*
X113992059Y-78276404D01*
X113796578Y-78748335D01*
X113649530Y-79200904D01*
X113638732Y-79234140D01*
X113519486Y-79730837D01*
X113439577Y-80235359D01*
X113399500Y-80744595D01*
X110700500Y-80744595D01*
X110700500Y-72124000D01*
X110720185Y-72056961D01*
X110772989Y-72011206D01*
X110824500Y-72000000D01*
X139375500Y-72000000D01*
X139442539Y-72019685D01*
G37*
G04 #@! TD.AperFunction*
G04 #@! TA.AperFunction,Conductor*
G36*
X150341444Y-48113999D02*
G01*
X150380486Y-48159056D01*
X150384951Y-48167820D01*
X150509890Y-48339786D01*
X150660213Y-48490109D01*
X150832179Y-48615048D01*
X150832181Y-48615049D01*
X150832184Y-48615051D01*
X150841493Y-48619794D01*
X150892290Y-48667766D01*
X150909087Y-48735587D01*
X150886552Y-48801722D01*
X150841505Y-48840760D01*
X150832446Y-48845376D01*
X150832440Y-48845380D01*
X150778282Y-48884727D01*
X150778282Y-48884728D01*
X151410591Y-49517037D01*
X151347007Y-49534075D01*
X151232993Y-49599901D01*
X151139901Y-49692993D01*
X151074075Y-49807007D01*
X151057037Y-49870591D01*
X150387642Y-49201196D01*
X150354157Y-49139873D01*
X150355077Y-49125166D01*
X150352501Y-49125444D01*
X150343596Y-49042619D01*
X150293354Y-48907913D01*
X150293350Y-48907906D01*
X150207190Y-48792812D01*
X150207187Y-48792809D01*
X150092093Y-48706649D01*
X150092088Y-48706646D01*
X149960528Y-48657577D01*
X149904595Y-48615705D01*
X149880178Y-48550241D01*
X149895030Y-48481968D01*
X149916175Y-48453720D01*
X150030104Y-48339792D01*
X150155051Y-48167816D01*
X150159514Y-48159054D01*
X150207488Y-48108259D01*
X150275308Y-48091463D01*
X150341444Y-48113999D01*
G37*
G04 #@! TD.AperFunction*
G04 #@! TA.AperFunction,Conductor*
G36*
X152881444Y-48113999D02*
G01*
X152920486Y-48159056D01*
X152924951Y-48167820D01*
X153049890Y-48339786D01*
X153200213Y-48490109D01*
X153372179Y-48615048D01*
X153372181Y-48615049D01*
X153372184Y-48615051D01*
X153381493Y-48619794D01*
X153432290Y-48667766D01*
X153449087Y-48735587D01*
X153426552Y-48801722D01*
X153381505Y-48840760D01*
X153372446Y-48845376D01*
X153372440Y-48845380D01*
X153318282Y-48884727D01*
X153318282Y-48884728D01*
X153950591Y-49517037D01*
X153887007Y-49534075D01*
X153772993Y-49599901D01*
X153679901Y-49692993D01*
X153614075Y-49807007D01*
X153597037Y-49870591D01*
X152964728Y-49238282D01*
X152964727Y-49238282D01*
X152925380Y-49292440D01*
X152920483Y-49302051D01*
X152872506Y-49352845D01*
X152804684Y-49369638D01*
X152738550Y-49347098D01*
X152699516Y-49302048D01*
X152694626Y-49292452D01*
X152655270Y-49238282D01*
X152655269Y-49238282D01*
X152022962Y-49870590D01*
X152005925Y-49807007D01*
X151940099Y-49692993D01*
X151847007Y-49599901D01*
X151732993Y-49534075D01*
X151669409Y-49517037D01*
X152301716Y-48884728D01*
X152247547Y-48845373D01*
X152247547Y-48845372D01*
X152238500Y-48840763D01*
X152187706Y-48792788D01*
X152170912Y-48724966D01*
X152193451Y-48658832D01*
X152238508Y-48619793D01*
X152247816Y-48615051D01*
X152337020Y-48550241D01*
X152419786Y-48490109D01*
X152419788Y-48490106D01*
X152419792Y-48490104D01*
X152570104Y-48339792D01*
X152570106Y-48339788D01*
X152570109Y-48339786D01*
X152695048Y-48167820D01*
X152695047Y-48167820D01*
X152695051Y-48167816D01*
X152699514Y-48159054D01*
X152747488Y-48108259D01*
X152815308Y-48091463D01*
X152881444Y-48113999D01*
G37*
G04 #@! TD.AperFunction*
G04 #@! TA.AperFunction,Conductor*
G36*
X155421444Y-48113999D02*
G01*
X155460486Y-48159056D01*
X155464951Y-48167820D01*
X155589890Y-48339786D01*
X155740213Y-48490109D01*
X155912179Y-48615048D01*
X155912181Y-48615049D01*
X155912184Y-48615051D01*
X155921493Y-48619794D01*
X155972290Y-48667766D01*
X155989087Y-48735587D01*
X155966552Y-48801722D01*
X155921505Y-48840760D01*
X155912446Y-48845376D01*
X155912440Y-48845380D01*
X155858282Y-48884727D01*
X155858282Y-48884728D01*
X156490591Y-49517037D01*
X156427007Y-49534075D01*
X156312993Y-49599901D01*
X156219901Y-49692993D01*
X156154075Y-49807007D01*
X156137037Y-49870591D01*
X155504728Y-49238282D01*
X155504727Y-49238282D01*
X155465380Y-49292440D01*
X155460483Y-49302051D01*
X155412506Y-49352845D01*
X155344684Y-49369638D01*
X155278550Y-49347098D01*
X155239516Y-49302048D01*
X155234626Y-49292452D01*
X155195270Y-49238282D01*
X155195269Y-49238282D01*
X154562962Y-49870590D01*
X154545925Y-49807007D01*
X154480099Y-49692993D01*
X154387007Y-49599901D01*
X154272993Y-49534075D01*
X154209409Y-49517037D01*
X154841716Y-48884728D01*
X154787547Y-48845373D01*
X154787547Y-48845372D01*
X154778500Y-48840763D01*
X154727706Y-48792788D01*
X154710912Y-48724966D01*
X154733451Y-48658832D01*
X154778508Y-48619793D01*
X154787816Y-48615051D01*
X154877020Y-48550241D01*
X154959786Y-48490109D01*
X154959788Y-48490106D01*
X154959792Y-48490104D01*
X155110104Y-48339792D01*
X155110106Y-48339788D01*
X155110109Y-48339786D01*
X155235048Y-48167820D01*
X155235047Y-48167820D01*
X155235051Y-48167816D01*
X155239514Y-48159054D01*
X155287488Y-48108259D01*
X155355308Y-48091463D01*
X155421444Y-48113999D01*
G37*
G04 #@! TD.AperFunction*
G04 #@! TA.AperFunction,Conductor*
G36*
X157961444Y-48113999D02*
G01*
X158000486Y-48159056D01*
X158004951Y-48167820D01*
X158129890Y-48339786D01*
X158280213Y-48490109D01*
X158452179Y-48615048D01*
X158452181Y-48615049D01*
X158452184Y-48615051D01*
X158461493Y-48619794D01*
X158512290Y-48667766D01*
X158529087Y-48735587D01*
X158506552Y-48801722D01*
X158461505Y-48840760D01*
X158452446Y-48845376D01*
X158452440Y-48845380D01*
X158398282Y-48884727D01*
X158398282Y-48884728D01*
X159030591Y-49517037D01*
X158967007Y-49534075D01*
X158852993Y-49599901D01*
X158759901Y-49692993D01*
X158694075Y-49807007D01*
X158677037Y-49870591D01*
X158044728Y-49238282D01*
X158044727Y-49238282D01*
X158005380Y-49292440D01*
X158000483Y-49302051D01*
X157952506Y-49352845D01*
X157884684Y-49369638D01*
X157818550Y-49347098D01*
X157779516Y-49302048D01*
X157774626Y-49292452D01*
X157735270Y-49238282D01*
X157735269Y-49238282D01*
X157102962Y-49870590D01*
X157085925Y-49807007D01*
X157020099Y-49692993D01*
X156927007Y-49599901D01*
X156812993Y-49534075D01*
X156749409Y-49517037D01*
X157381716Y-48884728D01*
X157327547Y-48845373D01*
X157327547Y-48845372D01*
X157318500Y-48840763D01*
X157267706Y-48792788D01*
X157250912Y-48724966D01*
X157273451Y-48658832D01*
X157318508Y-48619793D01*
X157327816Y-48615051D01*
X157417020Y-48550241D01*
X157499786Y-48490109D01*
X157499788Y-48490106D01*
X157499792Y-48490104D01*
X157650104Y-48339792D01*
X157650106Y-48339788D01*
X157650109Y-48339786D01*
X157775048Y-48167820D01*
X157775047Y-48167820D01*
X157775051Y-48167816D01*
X157779514Y-48159054D01*
X157827488Y-48108259D01*
X157895308Y-48091463D01*
X157961444Y-48113999D01*
G37*
G04 #@! TD.AperFunction*
G04 #@! TA.AperFunction,Conductor*
G36*
X159203032Y-40300648D02*
G01*
X159536929Y-40317052D01*
X159549037Y-40318245D01*
X159652146Y-40333539D01*
X159876699Y-40366849D01*
X159888617Y-40369219D01*
X160209951Y-40449709D01*
X160221588Y-40453240D01*
X160292806Y-40478722D01*
X160533467Y-40564832D01*
X160544688Y-40569479D01*
X160844163Y-40711120D01*
X160854871Y-40716844D01*
X161138988Y-40887137D01*
X161149106Y-40893897D01*
X161415170Y-41091224D01*
X161424576Y-41098944D01*
X161670013Y-41321395D01*
X161678604Y-41329986D01*
X161865755Y-41536475D01*
X161901055Y-41575423D01*
X161908775Y-41584829D01*
X162106102Y-41850893D01*
X162112862Y-41861011D01*
X162278149Y-42136777D01*
X162283148Y-42145116D01*
X162288883Y-42155844D01*
X162337229Y-42258064D01*
X162430514Y-42455297D01*
X162435170Y-42466540D01*
X162546759Y-42778411D01*
X162550292Y-42790055D01*
X162630777Y-43111369D01*
X162633151Y-43123305D01*
X162681754Y-43450962D01*
X162682947Y-43463071D01*
X162699351Y-43796966D01*
X162699500Y-43803051D01*
X162699500Y-50996948D01*
X162699351Y-51003033D01*
X162682947Y-51336928D01*
X162681754Y-51349037D01*
X162633151Y-51676694D01*
X162630777Y-51688630D01*
X162550292Y-52009944D01*
X162546759Y-52021588D01*
X162435170Y-52333459D01*
X162430514Y-52344702D01*
X162288885Y-52644151D01*
X162283148Y-52654883D01*
X162112862Y-52938988D01*
X162106102Y-52949106D01*
X161908775Y-53215170D01*
X161901055Y-53224576D01*
X161678611Y-53470006D01*
X161670006Y-53478611D01*
X161424576Y-53701055D01*
X161415170Y-53708775D01*
X161149106Y-53906102D01*
X161138988Y-53912862D01*
X160854883Y-54083148D01*
X160844151Y-54088885D01*
X160544702Y-54230514D01*
X160533459Y-54235170D01*
X160221588Y-54346759D01*
X160209944Y-54350292D01*
X159888630Y-54430777D01*
X159876694Y-54433151D01*
X159549037Y-54481754D01*
X159536928Y-54482947D01*
X159221989Y-54498419D01*
X159203031Y-54499351D01*
X159196949Y-54499500D01*
X143803499Y-54499500D01*
X143412004Y-54533751D01*
X143412000Y-54533751D01*
X143024994Y-54601991D01*
X143024983Y-54601993D01*
X142821555Y-54656502D01*
X142645384Y-54703707D01*
X142645381Y-54703708D01*
X142645380Y-54703708D01*
X142276078Y-54838124D01*
X141919937Y-55004195D01*
X141919913Y-55004207D01*
X141579587Y-55200695D01*
X141579572Y-55200704D01*
X141257652Y-55426115D01*
X140956606Y-55678724D01*
X140678724Y-55956606D01*
X140426115Y-56257652D01*
X140200704Y-56579572D01*
X140200695Y-56579587D01*
X140004207Y-56919913D01*
X140004195Y-56919937D01*
X139838124Y-57276078D01*
X139703708Y-57645380D01*
X139703708Y-57645382D01*
X139601993Y-58024983D01*
X139601991Y-58024994D01*
X139533751Y-58412000D01*
X139533751Y-58412004D01*
X139499500Y-58803499D01*
X139499500Y-69876000D01*
X139479815Y-69943039D01*
X139427011Y-69988794D01*
X139375500Y-70000000D01*
X110824500Y-70000000D01*
X110757461Y-69980315D01*
X110711706Y-69927511D01*
X110700500Y-69876000D01*
X110700500Y-48744589D01*
X124499500Y-48744589D01*
X124499500Y-49255410D01*
X124539577Y-49764641D01*
X124539577Y-49764642D01*
X124576854Y-49999999D01*
X124619486Y-50269163D01*
X124738732Y-50765860D01*
X124768665Y-50857984D01*
X124896578Y-51251664D01*
X125029431Y-51572398D01*
X125092060Y-51723598D01*
X125323963Y-52178733D01*
X125323968Y-52178741D01*
X125323970Y-52178745D01*
X125323973Y-52178752D01*
X125571567Y-52582786D01*
X125590861Y-52614271D01*
X125670517Y-52723908D01*
X125891102Y-53027518D01*
X125891112Y-53027532D01*
X126222847Y-53415942D01*
X126222853Y-53415949D01*
X126584051Y-53777147D01*
X126584057Y-53777152D01*
X126972467Y-54108887D01*
X126972474Y-54108892D01*
X127385729Y-54409139D01*
X127504226Y-54481754D01*
X127821247Y-54676026D01*
X127821253Y-54676028D01*
X127821267Y-54676037D01*
X128276402Y-54907940D01*
X128748330Y-55103419D01*
X128748335Y-55103421D01*
X128871859Y-55143556D01*
X129234140Y-55261268D01*
X129730837Y-55380514D01*
X130235359Y-55460423D01*
X130744595Y-55500500D01*
X130744603Y-55500500D01*
X131255397Y-55500500D01*
X131255405Y-55500500D01*
X131764641Y-55460423D01*
X132269163Y-55380514D01*
X132765860Y-55261268D01*
X133251670Y-55103419D01*
X133723598Y-54907940D01*
X134178733Y-54676037D01*
X134178748Y-54676027D01*
X134178752Y-54676026D01*
X134345423Y-54573889D01*
X134614271Y-54409139D01*
X135027526Y-54108892D01*
X135415949Y-53777147D01*
X135777147Y-53415949D01*
X136108892Y-53027526D01*
X136409139Y-52614271D01*
X136581221Y-52333459D01*
X136676026Y-52178752D01*
X136676027Y-52178748D01*
X136676037Y-52178733D01*
X136907940Y-51723598D01*
X137103419Y-51251670D01*
X137261268Y-50765860D01*
X137380514Y-50269163D01*
X137460423Y-49764641D01*
X137500500Y-49255405D01*
X137500500Y-48744595D01*
X137460423Y-48235359D01*
X137380514Y-47730837D01*
X137289975Y-47353713D01*
X147649500Y-47353713D01*
X147649500Y-47566286D01*
X147682753Y-47776239D01*
X147748444Y-47978414D01*
X147844951Y-48167820D01*
X147969890Y-48339786D01*
X148083818Y-48453714D01*
X148117303Y-48515037D01*
X148112319Y-48584729D01*
X148070447Y-48640662D01*
X148039471Y-48657577D01*
X147907912Y-48706646D01*
X147907906Y-48706649D01*
X147792812Y-48792809D01*
X147792809Y-48792812D01*
X147706649Y-48907906D01*
X147706645Y-48907913D01*
X147656403Y-49042620D01*
X147656401Y-49042627D01*
X147650000Y-49102155D01*
X147650000Y-49750000D01*
X148566988Y-49750000D01*
X148534075Y-49807007D01*
X148500000Y-49934174D01*
X148500000Y-50065826D01*
X148534075Y-50192993D01*
X148566988Y-50250000D01*
X147650000Y-50250000D01*
X147650000Y-50897844D01*
X147656401Y-50957372D01*
X147656403Y-50957379D01*
X147706645Y-51092086D01*
X147706649Y-51092093D01*
X147792809Y-51207187D01*
X147792812Y-51207190D01*
X147907906Y-51293350D01*
X147907913Y-51293354D01*
X148042620Y-51343596D01*
X148042627Y-51343598D01*
X148102155Y-51349999D01*
X148102172Y-51350000D01*
X148750000Y-51350000D01*
X148750000Y-50433012D01*
X148807007Y-50465925D01*
X148934174Y-50500000D01*
X149065826Y-50500000D01*
X149192993Y-50465925D01*
X149250000Y-50433012D01*
X149250000Y-51350000D01*
X149897828Y-51350000D01*
X149897844Y-51349999D01*
X149957372Y-51343598D01*
X149957379Y-51343596D01*
X150092086Y-51293354D01*
X150092093Y-51293350D01*
X150207187Y-51207190D01*
X150207190Y-51207187D01*
X150293350Y-51092093D01*
X150293354Y-51092086D01*
X150315529Y-51032632D01*
X150354319Y-50859390D01*
X150354682Y-50858734D01*
X150354642Y-50857984D01*
X150387642Y-50798802D01*
X151057037Y-50129408D01*
X151074075Y-50192993D01*
X151139901Y-50307007D01*
X151232993Y-50400099D01*
X151347007Y-50465925D01*
X151410590Y-50482962D01*
X150778282Y-51115269D01*
X150778282Y-51115270D01*
X150832449Y-51154624D01*
X151021782Y-51251095D01*
X151223870Y-51316757D01*
X151433754Y-51350000D01*
X151646246Y-51350000D01*
X151856127Y-51316757D01*
X151856130Y-51316757D01*
X152058217Y-51251095D01*
X152247554Y-51154622D01*
X152301716Y-51115270D01*
X152301717Y-51115270D01*
X151669408Y-50482962D01*
X151732993Y-50465925D01*
X151847007Y-50400099D01*
X151940099Y-50307007D01*
X152005925Y-50192993D01*
X152022962Y-50129408D01*
X152655270Y-50761717D01*
X152655270Y-50761716D01*
X152694622Y-50707554D01*
X152699514Y-50697954D01*
X152747488Y-50647157D01*
X152815308Y-50630361D01*
X152881444Y-50652897D01*
X152920486Y-50697954D01*
X152925375Y-50707550D01*
X152964728Y-50761716D01*
X153597037Y-50129408D01*
X153614075Y-50192993D01*
X153679901Y-50307007D01*
X153772993Y-50400099D01*
X153887007Y-50465925D01*
X153950590Y-50482962D01*
X153318282Y-51115269D01*
X153318282Y-51115270D01*
X153372449Y-51154624D01*
X153561782Y-51251095D01*
X153763870Y-51316757D01*
X153973754Y-51350000D01*
X154186246Y-51350000D01*
X154396127Y-51316757D01*
X154396130Y-51316757D01*
X154598217Y-51251095D01*
X154787554Y-51154622D01*
X154841716Y-51115270D01*
X154841717Y-51115270D01*
X154209408Y-50482962D01*
X154272993Y-50465925D01*
X154387007Y-50400099D01*
X154480099Y-50307007D01*
X154545925Y-50192993D01*
X154562962Y-50129409D01*
X155195270Y-50761717D01*
X155195270Y-50761716D01*
X155234622Y-50707554D01*
X155239514Y-50697954D01*
X155287488Y-50647157D01*
X155355308Y-50630361D01*
X155421444Y-50652897D01*
X155460486Y-50697954D01*
X155465375Y-50707550D01*
X155504728Y-50761716D01*
X156137036Y-50129407D01*
X156154075Y-50192993D01*
X156219901Y-50307007D01*
X156312993Y-50400099D01*
X156427007Y-50465925D01*
X156490590Y-50482962D01*
X155858282Y-51115269D01*
X155858282Y-51115270D01*
X155912449Y-51154624D01*
X156101782Y-51251095D01*
X156303870Y-51316757D01*
X156513754Y-51350000D01*
X156726246Y-51350000D01*
X156936127Y-51316757D01*
X156936130Y-51316757D01*
X157138217Y-51251095D01*
X157327554Y-51154622D01*
X157381716Y-51115270D01*
X157381717Y-51115270D01*
X156749408Y-50482962D01*
X156812993Y-50465925D01*
X156927007Y-50400099D01*
X157020099Y-50307007D01*
X157085925Y-50192993D01*
X157102962Y-50129408D01*
X157735270Y-50761717D01*
X157735270Y-50761716D01*
X157774622Y-50707554D01*
X157779514Y-50697954D01*
X157827488Y-50647157D01*
X157895308Y-50630361D01*
X157961444Y-50652897D01*
X158000486Y-50697954D01*
X158005375Y-50707550D01*
X158044728Y-50761716D01*
X158677037Y-50129408D01*
X158694075Y-50192993D01*
X158759901Y-50307007D01*
X158852993Y-50400099D01*
X158967007Y-50465925D01*
X159030590Y-50482962D01*
X158398282Y-51115269D01*
X158398282Y-51115270D01*
X158452449Y-51154624D01*
X158641782Y-51251095D01*
X158843870Y-51316757D01*
X159053754Y-51350000D01*
X159266246Y-51350000D01*
X159476127Y-51316757D01*
X159476130Y-51316757D01*
X159678217Y-51251095D01*
X159867554Y-51154622D01*
X159921716Y-51115270D01*
X159921717Y-51115270D01*
X159289408Y-50482962D01*
X159352993Y-50465925D01*
X159467007Y-50400099D01*
X159560099Y-50307007D01*
X159625925Y-50192993D01*
X159642962Y-50129408D01*
X160275270Y-50761717D01*
X160275270Y-50761716D01*
X160314622Y-50707554D01*
X160411095Y-50518217D01*
X160476757Y-50316130D01*
X160476757Y-50316127D01*
X160510000Y-50106246D01*
X160510000Y-49893753D01*
X160476757Y-49683872D01*
X160476757Y-49683869D01*
X160411095Y-49481782D01*
X160314624Y-49292449D01*
X160275270Y-49238282D01*
X160275269Y-49238282D01*
X159642962Y-49870590D01*
X159625925Y-49807007D01*
X159560099Y-49692993D01*
X159467007Y-49599901D01*
X159352993Y-49534075D01*
X159289409Y-49517037D01*
X159921716Y-48884728D01*
X159867547Y-48845373D01*
X159867547Y-48845372D01*
X159858500Y-48840763D01*
X159807706Y-48792788D01*
X159790912Y-48724966D01*
X159813451Y-48658832D01*
X159858508Y-48619793D01*
X159867816Y-48615051D01*
X159957020Y-48550241D01*
X160039786Y-48490109D01*
X160039788Y-48490106D01*
X160039792Y-48490104D01*
X160190104Y-48339792D01*
X160190106Y-48339788D01*
X160190109Y-48339786D01*
X160315048Y-48167820D01*
X160315047Y-48167820D01*
X160315051Y-48167816D01*
X160411557Y-47978412D01*
X160477246Y-47776243D01*
X160510500Y-47566287D01*
X160510500Y-47353713D01*
X160477246Y-47143757D01*
X160411557Y-46941588D01*
X160315051Y-46752184D01*
X160315049Y-46752181D01*
X160315048Y-46752179D01*
X160190109Y-46580213D01*
X160039786Y-46429890D01*
X159867820Y-46304951D01*
X159678414Y-46208444D01*
X159678413Y-46208443D01*
X159678412Y-46208443D01*
X159476243Y-46142754D01*
X159476241Y-46142753D01*
X159476240Y-46142753D01*
X159314957Y-46117208D01*
X159266287Y-46109500D01*
X159053713Y-46109500D01*
X159005042Y-46117208D01*
X158843760Y-46142753D01*
X158641585Y-46208444D01*
X158452179Y-46304951D01*
X158280213Y-46429890D01*
X158129890Y-46580213D01*
X158004949Y-46752182D01*
X158000484Y-46760946D01*
X157952509Y-46811742D01*
X157884688Y-46828536D01*
X157818553Y-46805998D01*
X157779516Y-46760946D01*
X157775050Y-46752182D01*
X157650109Y-46580213D01*
X157499786Y-46429890D01*
X157327820Y-46304951D01*
X157138414Y-46208444D01*
X157138413Y-46208443D01*
X157138412Y-46208443D01*
X156936243Y-46142754D01*
X156936241Y-46142753D01*
X156936240Y-46142753D01*
X156774957Y-46117208D01*
X156726287Y-46109500D01*
X156513713Y-46109500D01*
X156465042Y-46117208D01*
X156303760Y-46142753D01*
X156101585Y-46208444D01*
X155912179Y-46304951D01*
X155740213Y-46429890D01*
X155589890Y-46580213D01*
X155464949Y-46752182D01*
X155460484Y-46760946D01*
X155412509Y-46811742D01*
X155344688Y-46828536D01*
X155278553Y-46805998D01*
X155239516Y-46760946D01*
X155235050Y-46752182D01*
X155110109Y-46580213D01*
X154959786Y-46429890D01*
X154787820Y-46304951D01*
X154598414Y-46208444D01*
X154598413Y-46208443D01*
X154598412Y-46208443D01*
X154396243Y-46142754D01*
X154396241Y-46142753D01*
X154396240Y-46142753D01*
X154234957Y-46117208D01*
X154186287Y-46109500D01*
X153973713Y-46109500D01*
X153925042Y-46117208D01*
X153763760Y-46142753D01*
X153561585Y-46208444D01*
X153372179Y-46304951D01*
X153200213Y-46429890D01*
X153049890Y-46580213D01*
X152924949Y-46752182D01*
X152920484Y-46760946D01*
X152872509Y-46811742D01*
X152804688Y-46828536D01*
X152738553Y-46805998D01*
X152699516Y-46760946D01*
X152695050Y-46752182D01*
X152570109Y-46580213D01*
X152419786Y-46429890D01*
X152247820Y-46304951D01*
X152058414Y-46208444D01*
X152058413Y-46208443D01*
X152058412Y-46208443D01*
X151856243Y-46142754D01*
X151856241Y-46142753D01*
X151856240Y-46142753D01*
X151694957Y-46117208D01*
X151646287Y-46109500D01*
X151433713Y-46109500D01*
X151385042Y-46117208D01*
X151223760Y-46142753D01*
X151021585Y-46208444D01*
X150832179Y-46304951D01*
X150660213Y-46429890D01*
X150509890Y-46580213D01*
X150384949Y-46752182D01*
X150380484Y-46760946D01*
X150332509Y-46811742D01*
X150264688Y-46828536D01*
X150198553Y-46805998D01*
X150159516Y-46760946D01*
X150155050Y-46752182D01*
X150030109Y-46580213D01*
X149879786Y-46429890D01*
X149707820Y-46304951D01*
X149518414Y-46208444D01*
X149518413Y-46208443D01*
X149518412Y-46208443D01*
X149316243Y-46142754D01*
X149316241Y-46142753D01*
X149316240Y-46142753D01*
X149154957Y-46117208D01*
X149106287Y-46109500D01*
X148893713Y-46109500D01*
X148845042Y-46117208D01*
X148683760Y-46142753D01*
X148481585Y-46208444D01*
X148292179Y-46304951D01*
X148120213Y-46429890D01*
X147969890Y-46580213D01*
X147844951Y-46752179D01*
X147748444Y-46941585D01*
X147682753Y-47143760D01*
X147649500Y-47353713D01*
X137289975Y-47353713D01*
X137261268Y-47234140D01*
X137143556Y-46871859D01*
X137103421Y-46748335D01*
X137103419Y-46748330D01*
X136907940Y-46276402D01*
X136676037Y-45821267D01*
X136676028Y-45821253D01*
X136676026Y-45821247D01*
X136456627Y-45463222D01*
X136409139Y-45385729D01*
X136108892Y-44972474D01*
X136108887Y-44972467D01*
X135777152Y-44584057D01*
X135777147Y-44584051D01*
X135415949Y-44222853D01*
X135415942Y-44222847D01*
X135027532Y-43891112D01*
X135027518Y-43891102D01*
X134811434Y-43734108D01*
X134614271Y-43590861D01*
X134582786Y-43571567D01*
X134178752Y-43323973D01*
X134178745Y-43323970D01*
X134178741Y-43323968D01*
X134178733Y-43323963D01*
X133723598Y-43092060D01*
X133452564Y-42979794D01*
X133251664Y-42896578D01*
X132905639Y-42784149D01*
X132765860Y-42738732D01*
X132269163Y-42619486D01*
X132002579Y-42577263D01*
X131764641Y-42539577D01*
X131255410Y-42499500D01*
X131255405Y-42499500D01*
X130744595Y-42499500D01*
X130744589Y-42499500D01*
X130235358Y-42539577D01*
X130235357Y-42539577D01*
X129730842Y-42619485D01*
X129730839Y-42619485D01*
X129730837Y-42619486D01*
X129552958Y-42662190D01*
X129234151Y-42738729D01*
X129234145Y-42738730D01*
X129234140Y-42738732D01*
X129234128Y-42738736D01*
X128748335Y-42896578D01*
X128276404Y-43092059D01*
X128276402Y-43092060D01*
X127821267Y-43323963D01*
X127821263Y-43323965D01*
X127821254Y-43323970D01*
X127821247Y-43323973D01*
X127385738Y-43590855D01*
X127385727Y-43590862D01*
X126972481Y-43891102D01*
X126972467Y-43891112D01*
X126584057Y-44222847D01*
X126584043Y-44222860D01*
X126222860Y-44584043D01*
X126222847Y-44584057D01*
X125891112Y-44972467D01*
X125891102Y-44972481D01*
X125590862Y-45385727D01*
X125590855Y-45385738D01*
X125323973Y-45821247D01*
X125323970Y-45821254D01*
X125092059Y-46276404D01*
X124896578Y-46748335D01*
X124738736Y-47234128D01*
X124738729Y-47234151D01*
X124619485Y-47730842D01*
X124539577Y-48235357D01*
X124539577Y-48235358D01*
X124499500Y-48744589D01*
X110700500Y-48744589D01*
X110700500Y-43803051D01*
X110700649Y-43796966D01*
X110706459Y-43678711D01*
X112349500Y-43678711D01*
X112349500Y-43921288D01*
X112381161Y-44161785D01*
X112443947Y-44396104D01*
X112521800Y-44584057D01*
X112536776Y-44620212D01*
X112658064Y-44830289D01*
X112658066Y-44830292D01*
X112658067Y-44830293D01*
X112805733Y-45022736D01*
X112805739Y-45022743D01*
X112977256Y-45194260D01*
X112977262Y-45194265D01*
X113169711Y-45341936D01*
X113379788Y-45463224D01*
X113603900Y-45556054D01*
X113838211Y-45618838D01*
X114018586Y-45642584D01*
X114078711Y-45650500D01*
X114078712Y-45650500D01*
X114321289Y-45650500D01*
X114369388Y-45644167D01*
X114561789Y-45618838D01*
X114796100Y-45556054D01*
X115020212Y-45463224D01*
X115230289Y-45341936D01*
X115422738Y-45194265D01*
X115594265Y-45022738D01*
X115741936Y-44830289D01*
X115863224Y-44620212D01*
X115956054Y-44396100D01*
X116018838Y-44161789D01*
X116050500Y-43921288D01*
X116050500Y-43678712D01*
X116049164Y-43668567D01*
X116040599Y-43603504D01*
X116018838Y-43438211D01*
X115956054Y-43203900D01*
X115863224Y-42979788D01*
X115741936Y-42769711D01*
X115594265Y-42577262D01*
X115594260Y-42577256D01*
X115422743Y-42405739D01*
X115422736Y-42405733D01*
X115230293Y-42258067D01*
X115230292Y-42258066D01*
X115230289Y-42258064D01*
X115020212Y-42136776D01*
X115020205Y-42136773D01*
X114796104Y-42043947D01*
X114561785Y-41981161D01*
X114321289Y-41949500D01*
X114321288Y-41949500D01*
X114078712Y-41949500D01*
X114078711Y-41949500D01*
X113838214Y-41981161D01*
X113603895Y-42043947D01*
X113379794Y-42136773D01*
X113379785Y-42136777D01*
X113169706Y-42258067D01*
X112977263Y-42405733D01*
X112977256Y-42405739D01*
X112805739Y-42577256D01*
X112805733Y-42577263D01*
X112658067Y-42769706D01*
X112536777Y-42979785D01*
X112536773Y-42979794D01*
X112443947Y-43203895D01*
X112381161Y-43438214D01*
X112349500Y-43678711D01*
X110706459Y-43678711D01*
X110706957Y-43668568D01*
X110706957Y-43668567D01*
X110717052Y-43463072D01*
X110718245Y-43450962D01*
X110737082Y-43323973D01*
X110766849Y-43123296D01*
X110769218Y-43111385D01*
X110849710Y-42790043D01*
X110853240Y-42778411D01*
X110867436Y-42738736D01*
X110964835Y-42466525D01*
X110969476Y-42455318D01*
X111111124Y-42155828D01*
X111116840Y-42145136D01*
X111287145Y-41860998D01*
X111293888Y-41850905D01*
X111491232Y-41584818D01*
X111498935Y-41575433D01*
X111721405Y-41329975D01*
X111729975Y-41321405D01*
X111975433Y-41098935D01*
X111984818Y-41091232D01*
X112250905Y-40893888D01*
X112260998Y-40887145D01*
X112545136Y-40716840D01*
X112555828Y-40711124D01*
X112855318Y-40569476D01*
X112866525Y-40564835D01*
X113178412Y-40453239D01*
X113190043Y-40449710D01*
X113511385Y-40369218D01*
X113523296Y-40366849D01*
X113850962Y-40318244D01*
X113863068Y-40317052D01*
X114196967Y-40300648D01*
X114203051Y-40300500D01*
X114265892Y-40300500D01*
X159134108Y-40300500D01*
X159196949Y-40300500D01*
X159203032Y-40300648D01*
G37*
G04 #@! TD.AperFunction*
D14*
X159200000Y-39800000D02*
G75*
G02*
X163200000Y-43800000I0J-4000000D01*
G01*
X144000000Y-87500000D02*
G75*
G02*
X140000000Y-83500000I0J4000000D01*
G01*
X144000000Y-87500000D02*
X159171573Y-87500000D01*
X163200000Y-51000000D02*
G75*
G02*
X159200000Y-55000000I-4000000J0D01*
G01*
X159171573Y-87500000D02*
G75*
G02*
X163200000Y-91471573I28427J-4000000D01*
G01*
X163200000Y-98671573D02*
G75*
G02*
X159228427Y-102700000I-4000000J-28427D01*
G01*
X110200000Y-43800000D02*
G75*
G02*
X114200000Y-39800000I4000000J0D01*
G01*
X163200000Y-91471575D02*
X163200000Y-98671573D01*
X114228427Y-102699999D02*
X159228427Y-102700000D01*
X144000000Y-55000000D02*
X159200000Y-55000000D01*
X140000000Y-59000000D02*
X140000000Y-83500000D01*
X110200000Y-43800000D02*
X110200000Y-98728427D01*
X114228427Y-102700000D02*
G75*
G02*
X110200000Y-98728427I-28427J4000000D01*
G01*
X163200000Y-43800000D02*
X163200000Y-51000000D01*
X140000000Y-59000000D02*
G75*
G02*
X144000000Y-55000000I4000000J0D01*
G01*
X114200000Y-39800000D02*
X159200000Y-39800000D01*
M02*
