G04 #@! TF.GenerationSoftware,KiCad,Pcbnew,9.0.3*
G04 #@! TF.CreationDate,2025-08-14T23:55:57-06:00*
G04 #@! TF.ProjectId,ProtoboardSourcePCB,50726f74-6f62-46f6-9172-64536f757263,rev?*
G04 #@! TF.SameCoordinates,Original*
G04 #@! TF.FileFunction,Soldermask,Top*
G04 #@! TF.FilePolarity,Negative*
%FSLAX46Y46*%
G04 Gerber Fmt 4.6, Leading zero omitted, Abs format (unit mm)*
G04 Created by KiCad (PCBNEW 9.0.3) date 2025-08-14 23:55:57*
%MOMM*%
%LPD*%
G01*
G04 APERTURE LIST*
G04 Aperture macros list*
%AMRoundRect*
0 Rectangle with rounded corners*
0 $1 Rounding radius*
0 $2 $3 $4 $5 $6 $7 $8 $9 X,Y pos of 4 corners*
0 Add a 4 corners polygon primitive as box body*
4,1,4,$2,$3,$4,$5,$6,$7,$8,$9,$2,$3,0*
0 Add four circle primitives for the rounded corners*
1,1,$1+$1,$2,$3*
1,1,$1+$1,$4,$5*
1,1,$1+$1,$6,$7*
1,1,$1+$1,$8,$9*
0 Add four rect primitives between the rounded corners*
20,1,$1+$1,$2,$3,$4,$5,0*
20,1,$1+$1,$4,$5,$6,$7,0*
20,1,$1+$1,$6,$7,$8,$9,0*
20,1,$1+$1,$8,$9,$2,$3,0*%
G04 Aperture macros list end*
%ADD10C,3.200000*%
%ADD11RoundRect,0.250000X0.650000X-0.412500X0.650000X0.412500X-0.650000X0.412500X-0.650000X-0.412500X0*%
%ADD12C,12.000000*%
%ADD13R,1.700000X1.700000*%
%ADD14C,1.700000*%
%ADD15RoundRect,0.250000X-0.650000X0.412500X-0.650000X-0.412500X0.650000X-0.412500X0.650000X0.412500X0*%
G04 #@! TA.AperFunction,Profile*
%ADD16C,0.050000*%
G04 #@! TD*
G04 APERTURE END LIST*
D10*
X114200000Y-98700000D03*
X114200000Y-43800000D03*
D11*
X143000000Y-50462500D03*
X143000000Y-47337500D03*
D12*
X131000000Y-93500000D03*
X119900000Y-61000000D03*
D13*
X149000000Y-95000000D03*
D14*
X149000000Y-92460000D03*
X151540000Y-95000000D03*
X151540000Y-92460000D03*
X154080000Y-95000000D03*
X154080000Y-92460000D03*
X156620000Y-95000000D03*
X156620000Y-92460000D03*
X159160000Y-95000000D03*
X159160000Y-92460000D03*
D15*
X143000000Y-92237500D03*
X143000000Y-95362500D03*
D12*
X131000000Y-49000000D03*
D13*
X149000000Y-50000000D03*
D14*
X149000000Y-47460000D03*
X151540000Y-50000000D03*
X151540000Y-47460000D03*
X154080000Y-50000000D03*
X154080000Y-47460000D03*
X156620000Y-50000000D03*
X156620000Y-47460000D03*
X159160000Y-50000000D03*
X159160000Y-47460000D03*
D12*
X119900000Y-81000000D03*
D16*
X159200000Y-39800000D02*
G75*
G02*
X163200000Y-43800000I0J-4000000D01*
G01*
X144000000Y-87500000D02*
G75*
G02*
X140000000Y-83500000I0J4000000D01*
G01*
X144000000Y-87500000D02*
X159171573Y-87500000D01*
X163200000Y-51000000D02*
G75*
G02*
X159200000Y-55000000I-4000000J0D01*
G01*
X159171573Y-87500000D02*
G75*
G02*
X163200000Y-91471573I28427J-4000000D01*
G01*
X163200000Y-98671573D02*
G75*
G02*
X159228427Y-102700000I-4000000J-28427D01*
G01*
X110200000Y-43800000D02*
G75*
G02*
X114200000Y-39800000I4000000J0D01*
G01*
X163200000Y-91471575D02*
X163200000Y-98671573D01*
X114228427Y-102699999D02*
X159228427Y-102700000D01*
X144000000Y-55000000D02*
X159200000Y-55000000D01*
X140000000Y-59000000D02*
X140000000Y-83500000D01*
X110200000Y-43800000D02*
X110200000Y-98728427D01*
X114228427Y-102700000D02*
G75*
G02*
X110200000Y-98728427I-28427J4000000D01*
G01*
X163200000Y-43800000D02*
X163200000Y-51000000D01*
X140000000Y-59000000D02*
G75*
G02*
X144000000Y-55000000I4000000J0D01*
G01*
X114200000Y-39800000D02*
X159200000Y-39800000D01*
M02*
